<svg viewBox="0 0 1616 1466" preserveAspectRatio="none" fill="none" xmlns="http://www.w3.org/2000/svg"><circle r="108.408" transform="scale(1.22477 .70706) rotate(-45 1767.657 -217.559)" stroke="url(#a)" stroke-width="47"/><circle r="108.408" transform="scale(1.22477 .70706) rotate(-45 1767.657 -217.559)" stroke="url(#b)" stroke-opacity=".2" stroke-width="47"/><circle r="113.191" transform="scale(1.22477 .70706) rotate(-45 1767.658 -217.557)" stroke="#fff" stroke-width="10" stroke-linecap="round" stroke-dasharray="28 28"/><circle r="113.191" transform="scale(1.22477 .70706) rotate(-45 1767.658 -217.557)" stroke="url(#c)" stroke-opacity=".2" stroke-width="10" stroke-linecap="round" stroke-dasharray="28 28"/><path d="M1136.75 838.736 821.49 1020.89 506.23 838.736l315.26-182.112 315.26 182.112z" fill="url(#d)"/><g filter="url(#e)"><path d="M821.491 1020.89v66.99l315.259-182.154v-66.99L821.491 1020.89z" fill="url(#f)"/><path d="M821.491 1020.89v66.99l315.259-182.154v-66.99L821.491 1020.89z" fill="#000" fill-opacity=".4"/></g><g filter="url(#g)"><path d="M821.49 1087.88 506.23 905.726v-66.99l315.26 182.154v66.99z" fill="url(#h)"/><path d="M821.49 1087.88 506.23 905.726v-66.99l315.26 182.154v66.99z" fill="#96FFA1" fill-opacity=".4"/><path d="M821.49 1087.88 506.23 905.726v-66.99l315.26 182.154v66.99z" stroke="url(#i)" stroke-width="1.61" stroke-linejoin="round"/></g><g filter="url(#j)"><circle cx="820.617" cy="644.696" r="217.5" fill="#3F9" fill-opacity=".8"/></g><g filter="url(#k)"><g filter="url(#l)"><path d="m913.302 479.427-91.553 52.614-91.543-52.614 91.543-52.614 91.553 52.614z" fill="#00BCFD" fill-opacity=".2"/><path d="m913.302 479.427-91.553 52.614-91.543-52.614 91.543-52.614 91.553 52.614z" stroke="url(#m)" stroke-width="1.61" stroke-linejoin="round"/></g><g filter="url(#n)"><path d="m913.302 601.491-91.553 52.614-91.543-52.614 91.543-52.614 91.553 52.614z" fill="#00BCFD" fill-opacity=".2"/></g><g filter="url(#o)"><path d="m821.758 637.269-91.543-52.614V479.427l91.543 52.614v105.228z" fill="url(#p)"/><path d="m821.758 637.269-91.543-52.614V479.427l91.543 52.614v105.228z" fill="#96FFA1" fill-opacity=".2"/></g><g filter="url(#q)"><path d="m821.758 759.333-91.543-52.614V601.491l91.543 52.614v105.228z" fill="url(#r)"/><path d="m821.758 759.333-91.543-52.614V601.491l91.543 52.614v105.228z" fill="#96FFA1" fill-opacity=".2"/></g><g filter="url(#s)"><path d="m913.301 584.655-91.543 52.614V532.041l91.543-52.614v105.228z" fill="url(#t)"/><path d="m913.301 584.655-91.543 52.614V532.041l91.543-52.614v105.228z" fill="#000" fill-opacity=".4"/></g><g filter="url(#u)"><path d="m913.301 706.719-91.543 52.614V654.105l91.543-52.614v105.228z" fill="url(#v)"/><path d="m913.301 706.719-91.543 52.614V654.105l91.543-52.614v105.228z" fill="#000" fill-opacity=".4"/></g><g filter="url(#w)"><path d="m1018.53 540.459-91.555 52.614-91.543-52.614 91.543-52.614 91.555 52.614z" fill="#00BCFD" fill-opacity=".2"/><path d="m1018.53 540.459-91.555 52.614-91.543-52.614 91.543-52.614 91.555 52.614z" stroke="#04FFA4" stroke-width="1.61" stroke-linejoin="round"/></g><g filter="url(#x)"><path d="m1018.53 662.523-91.555 52.614-91.543-52.614 91.543-52.614 91.555 52.614z" fill="#00BCFD" fill-opacity=".2"/><path d="m1018.53 662.523-91.555 52.614-91.543-52.614 91.543-52.614 91.555 52.614z" stroke="#04FFA4" stroke-width="1.61" stroke-linejoin="round"/></g><g filter="url(#y)"><path d="m926.985 698.301-91.542-52.614V540.459l91.542 52.614v105.228z" fill="url(#z)"/><path d="m926.985 698.301-91.542-52.614V540.459l91.542 52.614v105.228z" fill="#96FFA1" fill-opacity=".2"/></g><g filter="url(#A)"><path d="m926.985 820.366-91.542-52.614V662.524l91.542 52.614v105.228z" fill="url(#B)"/><path d="m926.985 820.366-91.542-52.614V662.524l91.542 52.614v105.228z" fill="#96FFA1" fill-opacity=".2"/><path d="m926.985 820.366-91.542-52.614V662.524l91.542 52.614v105.228z" stroke="url(#C)" stroke-width="1.61" stroke-linejoin="round"/></g><g filter="url(#D)"><path d="m1018.53 645.687-91.543 52.614V593.073l91.543-52.614v105.228z" fill="url(#E)"/><path d="m1018.53 645.687-91.543 52.614V593.073l91.543-52.614v105.228z" fill="#000" fill-opacity=".5"/><path d="m1018.53 645.687-91.543 52.614V593.073l91.543-52.614v105.228z" stroke="url(#F)" stroke-width="1.61" stroke-linejoin="round"/></g><g filter="url(#G)"><path d="m1018.53 767.752-91.543 52.614V715.138l91.543-52.614v105.228z" fill="url(#H)"/><path d="m1018.53 767.752-91.543 52.614V715.138l91.543-52.614v105.228z" fill="#000" fill-opacity=".5"/><path d="m1018.53 767.752-91.543 52.614V715.138l91.543-52.614v105.228z" stroke="url(#I)" stroke-width="1.61" stroke-linejoin="round"/></g><g filter="url(#J)"><path d="m808.074 540.459-91.554 52.614-91.543-52.614 91.543-52.614 91.554 52.614z" fill="#00BCFD" fill-opacity=".2"/><path d="m808.074 540.459-91.554 52.614-91.543-52.614 91.543-52.614 91.554 52.614z" stroke="url(#K)" stroke-width="1.61" stroke-linejoin="round"/></g><g filter="url(#L)"><path d="m808.074 662.523-91.554 52.614-91.543-52.614 91.543-52.614 91.554 52.614z" fill="#00BCFD" fill-opacity=".2"/><path d="m808.074 662.523-91.554 52.614-91.543-52.614 91.543-52.614 91.554 52.614z" stroke="url(#M)" stroke-width="1.61" stroke-linejoin="round"/></g><g filter="url(#N)"><path d="m716.53 698.301-91.543-52.614V540.459l91.543 52.614v105.228z" fill="url(#O)"/><path d="m716.53 698.301-91.543-52.614V540.459l91.543 52.614v105.228z" fill="#96FFA1" fill-opacity=".4"/><path d="m716.53 698.301-91.543-52.614V540.459l91.543 52.614v105.228z" stroke="url(#P)" stroke-width="1.61" stroke-linejoin="round"/></g><g filter="url(#Q)"><path d="m716.53 820.366-91.543-52.614V662.524l91.543 52.614v105.228z" fill="url(#R)"/><path d="m716.53 820.366-91.543-52.614V662.524l91.543 52.614v105.228z" fill="#96FFA1" fill-opacity=".4"/><path d="m716.53 820.366-91.543-52.614V662.524l91.543 52.614v105.228z" stroke="url(#S)" stroke-width="1.61" stroke-linejoin="round"/></g><g filter="url(#T)"><path d="m808.074 645.687-91.543 52.614V593.073l91.543-52.614v105.228z" fill="url(#U)"/><path d="m808.074 645.687-91.543 52.614V593.073l91.543-52.614v105.228z" fill="#000" fill-opacity=".4"/></g><g filter="url(#V)"><path d="m808.074 767.752-91.543 52.614V715.138l91.543-52.614v105.228z" fill="url(#W)"/><path d="m808.074 767.752-91.543 52.614V715.138l91.543-52.614v105.228z" fill="#000" fill-opacity=".4"/></g><g filter="url(#X)"><path d="m913.302 601.491-91.553 52.614-91.543-52.614 91.543-52.614 91.553 52.614z" fill="#00BCFD" fill-opacity=".2"/><path d="m913.302 601.491-91.553 52.614-91.543-52.614 91.543-52.614 91.553 52.614z" stroke="#04FFA4" stroke-width="1.61" stroke-linejoin="round"/></g><g filter="url(#Y)"><path d="m913.302 723.556-91.553 52.613-91.543-52.613 91.543-52.614 91.553 52.614z" fill="#00BCFD" fill-opacity=".2"/><path d="m913.302 723.556-91.553 52.613-91.543-52.613 91.543-52.614 91.553 52.614z" stroke="url(#Z)" stroke-width="1.61" stroke-linejoin="round"/></g><g filter="url(#aa)"><path d="m821.758 759.333-91.543-52.614V601.491l91.543 52.614v105.228z" fill="url(#ab)"/><path d="m821.758 759.333-91.543-52.614V601.491l91.543 52.614v105.228z" fill="#96FFA1" fill-opacity=".4"/><path d="m821.758 759.333-91.543-52.614V601.491l91.543 52.614v105.228z" stroke="url(#ac)" stroke-width="1.61" stroke-linejoin="round"/></g><g filter="url(#ad)"><path d="m821.758 881.398-91.543-52.614V723.556l91.543 52.614v105.228z" fill="url(#ae)"/><path d="m821.758 881.398-91.543-52.614V723.556l91.543 52.614v105.228z" fill="#96FFA1" fill-opacity=".4"/><path d="m821.758 881.398-91.543-52.614V723.556l91.543 52.614v105.228z" stroke="url(#af)" stroke-width="1.61" stroke-linejoin="round"/></g><g filter="url(#ag)"><path d="m913.301 706.719-91.543 52.614V654.105l91.543-52.614v105.228z" fill="url(#ah)"/><path d="m913.301 706.719-91.543 52.614V654.105l91.543-52.614v105.228z" fill="#000" fill-opacity=".4"/><path d="m913.301 706.719-91.543 52.614V654.105l91.543-52.614v105.228z" stroke="url(#ai)" stroke-width="1.61" stroke-linejoin="round"/></g><g filter="url(#aj)"><path d="m913.301 828.784-91.543 52.614V776.17l91.543-52.614v105.228z" fill="url(#ak)"/><path d="m913.301 828.784-91.543 52.614V776.17l91.543-52.614v105.228z" fill="#000" fill-opacity=".4"/><path d="m913.301 828.784-91.543 52.614V776.17l91.543-52.614v105.228z" stroke="url(#al)" stroke-width="1.61" stroke-linejoin="round"/></g></g><g filter="url(#am)"><path d="m864.76 485.752-43.097 24.624-43.097-24.624V124h87.102l-.908 361.752z" fill="url(#an)"/></g><g filter="url(#ao)"><path d="m760.907 547.099-43.097 24.696-43.097-24.696V184.302h87.102l-.908 362.797z" fill="url(#ap)"/></g><g filter="url(#aq)"><path d="m971.927 547.099-44.754 24.696-44.755-24.696V184.302h90.452l-.943 362.797z" fill="url(#ar)"/></g><g filter="url(#as)"><path d="m864.76 613.21-43.097 24.696-43.097-24.696V250.413h87.102l-.908 362.797z" fill="url(#at)"/></g><path d="m864.76 485.752-43.097 24.624-43.097-24.624V124h87.102l-.908 361.752z" fill="url(#au)"/><path d="m760.907 547.099-43.097 24.696-43.097-24.696V184.302h87.102l-.908 362.797z" fill="url(#av)"/><path d="m971.927 547.099-44.754 24.696-44.755-24.696V184.302h90.452l-.943 362.797z" fill="url(#aw)"/><path d="m864.76 608.518-43.097 24.695-43.097-24.695V245.72h87.102l-.908 362.798z" fill="url(#ax)"/><defs><linearGradient id="i" x1="663.86" y1="838.736" x2="663.86" y2="1087.88" gradientUnits="userSpaceOnUse"><stop stop-color="#04FFA4"/><stop offset=".461" stop-color="#04FFA4" stop-opacity="0"/></linearGradient><linearGradient id="ax" x1="822.244" y1="627.653" x2="822.116" y2="161.93" gradientUnits="userSpaceOnUse"><stop stop-color="#04FFA4"/><stop offset=".451" stop-color="#060043" stop-opacity="0"/></linearGradient><linearGradient id="aw" x1="927.776" y1="566.235" x2="927.653" y2="100.512" gradientUnits="userSpaceOnUse"><stop stop-color="#04FFA4"/><stop offset=".451" stop-color="#060043" stop-opacity="0"/></linearGradient><linearGradient id="av" x1="718.391" y1="566.235" x2="718.263" y2="100.512" gradientUnits="userSpaceOnUse"><stop stop-color="#04FFA4"/><stop offset=".451" stop-color="#060043" stop-opacity="0"/></linearGradient><linearGradient id="au" x1="822.244" y1="504.832" x2="822.117" y2="40.452" gradientUnits="userSpaceOnUse"><stop stop-color="#04FFA4"/><stop offset=".451" stop-color="#060043" stop-opacity="0"/></linearGradient><linearGradient id="at" x1="822.244" y1="632.346" x2="822.116" y2="166.623" gradientUnits="userSpaceOnUse"><stop stop-color="#04FFA4"/><stop offset=".451" stop-color="#060043" stop-opacity="0"/></linearGradient><linearGradient id="ar" x1="927.776" y1="566.235" x2="927.653" y2="100.512" gradientUnits="userSpaceOnUse"><stop stop-color="#04FFA4"/><stop offset=".451" stop-color="#060043" stop-opacity="0"/></linearGradient><linearGradient id="ap" x1="718.391" y1="566.235" x2="718.263" y2="100.512" gradientUnits="userSpaceOnUse"><stop stop-color="#04FFA4"/><stop offset=".451" stop-color="#060043" stop-opacity="0"/></linearGradient><linearGradient id="an" x1="822.244" y1="504.832" x2="822.117" y2="40.452" gradientUnits="userSpaceOnUse"><stop stop-color="#04FFA4"/><stop offset=".451" stop-color="#060043" stop-opacity="0"/></linearGradient><linearGradient id="al" x1="867.529" y1="723.556" x2="867.529" y2="881.398" gradientUnits="userSpaceOnUse"><stop stop-color="#04FFA4"/><stop offset="1" stop-color="#04FFA4" stop-opacity="0"/></linearGradient><linearGradient id="ak" x1="867.529" y1="723.556" x2="867.529" y2="881.398" gradientUnits="userSpaceOnUse"><stop stop-color="#085161"/><stop offset="1" stop-color="#085161" stop-opacity="0"/></linearGradient><linearGradient id="ai" x1="867.529" y1="601.491" x2="867.529" y2="759.333" gradientUnits="userSpaceOnUse"><stop stop-color="#04FFA4"/><stop offset="1" stop-color="#04FFA4" stop-opacity="0"/></linearGradient><linearGradient id="ah" x1="867.529" y1="601.491" x2="867.529" y2="759.333" gradientUnits="userSpaceOnUse"><stop stop-color="#085161"/><stop offset="1" stop-color="#085161" stop-opacity="0"/></linearGradient><linearGradient id="af" x1="775.986" y1="723.556" x2="775.986" y2="881.398" gradientUnits="userSpaceOnUse"><stop stop-color="#04FFA4"/><stop offset=".461" stop-color="#04FFA4" stop-opacity="0"/></linearGradient><linearGradient id="ae" x1="775.986" y1="723.556" x2="775.986" y2="881.398" gradientUnits="userSpaceOnUse"><stop stop-color="#085161"/><stop offset="1" stop-color="#085161" stop-opacity="0"/></linearGradient><linearGradient id="ac" x1="775.986" y1="601.491" x2="775.986" y2="759.333" gradientUnits="userSpaceOnUse"><stop stop-color="#04FFA4"/><stop offset=".461" stop-color="#04FFA4" stop-opacity="0"/></linearGradient><linearGradient id="ab" x1="775.986" y1="601.491" x2="775.986" y2="759.333" gradientUnits="userSpaceOnUse"><stop stop-color="#085161"/><stop offset="1" stop-color="#085161" stop-opacity="0"/></linearGradient><linearGradient id="Z" x1="821.754" y1="670.942" x2="821.754" y2="776.169" gradientUnits="userSpaceOnUse"><stop stop-color="#04FFA4"/><stop offset=".461" stop-color="#04FFA4" stop-opacity="0"/></linearGradient><linearGradient id="W" x1="762.302" y1="662.524" x2="762.302" y2="820.366" gradientUnits="userSpaceOnUse"><stop stop-color="#085161"/><stop offset="1" stop-color="#085161" stop-opacity="0"/></linearGradient><linearGradient id="U" x1="762.302" y1="540.459" x2="762.302" y2="698.301" gradientUnits="userSpaceOnUse"><stop stop-color="#085161"/><stop offset="1" stop-color="#085161" stop-opacity="0"/></linearGradient><linearGradient id="S" x1="670.759" y1="662.524" x2="670.759" y2="820.366" gradientUnits="userSpaceOnUse"><stop stop-color="#04FFA4"/><stop offset=".461" stop-color="#04FFA4" stop-opacity="0"/></linearGradient><linearGradient id="R" x1="670.759" y1="662.524" x2="670.759" y2="820.366" gradientUnits="userSpaceOnUse"><stop stop-color="#085161"/><stop offset="1" stop-color="#085161" stop-opacity="0"/></linearGradient><linearGradient id="P" x1="670.759" y1="540.459" x2="670.759" y2="698.301" gradientUnits="userSpaceOnUse"><stop stop-color="#04FFA4"/><stop offset=".461" stop-color="#04FFA4" stop-opacity="0"/></linearGradient><linearGradient id="O" x1="670.759" y1="540.459" x2="670.759" y2="698.301" gradientUnits="userSpaceOnUse"><stop stop-color="#085161"/><stop offset="1" stop-color="#085161" stop-opacity="0"/></linearGradient><linearGradient id="M" x1="716.525" y1="609.909" x2="716.525" y2="715.137" gradientUnits="userSpaceOnUse"><stop stop-color="#04FFA4"/><stop offset=".461" stop-color="#04FFA4" stop-opacity="0"/></linearGradient><linearGradient id="K" x1="716.525" y1="487.845" x2="716.525" y2="593.073" gradientUnits="userSpaceOnUse"><stop stop-color="#04FFA4"/><stop offset="1" stop-color="#04FFA4" stop-opacity="0"/></linearGradient><linearGradient id="I" x1="972.758" y1="662.524" x2="972.758" y2="820.366" gradientUnits="userSpaceOnUse"><stop stop-color="#04FFA4"/><stop offset=".461" stop-color="#04FFA4" stop-opacity="0"/></linearGradient><linearGradient id="H" x1="972.758" y1="662.524" x2="972.758" y2="820.366" gradientUnits="userSpaceOnUse"><stop offset=".389" stop-color="#085161"/><stop offset="1" stop-color="#085161" stop-opacity="0"/></linearGradient><linearGradient id="F" x1="972.758" y1="540.459" x2="972.758" y2="698.301" gradientUnits="userSpaceOnUse"><stop stop-color="#04FFA4"/><stop offset="1" stop-color="#04FFA4" stop-opacity="0"/></linearGradient><linearGradient id="E" x1="972.758" y1="540.459" x2="972.758" y2="698.301" gradientUnits="userSpaceOnUse"><stop offset=".389" stop-color="#085161"/><stop offset="1" stop-color="#085161" stop-opacity="0"/></linearGradient><linearGradient id="C" x1="881.214" y1="662.524" x2="881.214" y2="820.366" gradientUnits="userSpaceOnUse"><stop stop-color="#04FFA4"/><stop offset=".461" stop-color="#04FFA4" stop-opacity="0"/></linearGradient><linearGradient id="B" x1="881.214" y1="662.524" x2="881.214" y2="820.366" gradientUnits="userSpaceOnUse"><stop stop-color="#085161"/><stop offset="1" stop-color="#085161" stop-opacity="0"/></linearGradient><linearGradient id="a" x1="104.023" y1="-57.542" x2="91.163" y2="461.661" gradientUnits="userSpaceOnUse"><stop stop-color="#085161"/><stop offset="1" stop-color="#085161" stop-opacity="0"/></linearGradient><linearGradient id="b" x1="85.453" y1="43.886" x2="177.037" y2="528.409" gradientUnits="userSpaceOnUse"><stop stop-color="#96FFA1"/><stop offset="1" stop-color="#96FFA1" stop-opacity="0"/></linearGradient><linearGradient id="c" x1="73.328" y1="37.659" x2="151.917" y2="453.431" gradientUnits="userSpaceOnUse"><stop stop-color="#96FFA1"/><stop offset="1" stop-color="#96FFA1" stop-opacity="0"/></linearGradient><linearGradient id="d" x1="821.49" y1="656.624" x2="821.49" y2="1020.89" gradientUnits="userSpaceOnUse"><stop stop-color="#064E5E"/><stop offset="1" stop-color="#085161" stop-opacity="0"/></linearGradient><linearGradient id="f" x1="979.121" y1="838.736" x2="979.121" y2="1087.88" gradientUnits="userSpaceOnUse"><stop stop-color="#085161"/><stop offset="1" stop-color="#085161" stop-opacity="0"/></linearGradient><linearGradient id="h" x1="663.86" y1="838.736" x2="663.86" y2="1087.88" gradientUnits="userSpaceOnUse"><stop stop-color="#085161"/><stop offset="1" stop-color="#085161" stop-opacity="0"/></linearGradient><linearGradient id="z" x1="881.214" y1="540.459" x2="881.214" y2="698.301" gradientUnits="userSpaceOnUse"><stop stop-color="#085161"/><stop offset="1" stop-color="#085161" stop-opacity="0"/></linearGradient><linearGradient id="m" x1="821.754" y1="426.813" x2="821.754" y2="532.041" gradientUnits="userSpaceOnUse"><stop stop-color="#04FFA4"/><stop offset="1" stop-color="#04FFA4" stop-opacity="0"/></linearGradient><linearGradient id="p" x1="775.986" y1="479.427" x2="775.986" y2="637.269" gradientUnits="userSpaceOnUse"><stop stop-color="#085161"/><stop offset="1" stop-color="#085161" stop-opacity="0"/></linearGradient><linearGradient id="r" x1="775.986" y1="601.491" x2="775.986" y2="759.333" gradientUnits="userSpaceOnUse"><stop stop-color="#085161"/><stop offset="1" stop-color="#085161" stop-opacity="0"/></linearGradient><linearGradient id="t" x1="867.529" y1="479.427" x2="867.529" y2="637.269" gradientUnits="userSpaceOnUse"><stop stop-color="#085161"/><stop offset="1" stop-color="#085161" stop-opacity="0"/></linearGradient><linearGradient id="v" x1="867.529" y1="601.491" x2="867.529" y2="759.333" gradientUnits="userSpaceOnUse"><stop stop-color="#085161"/><stop offset="1" stop-color="#085161" stop-opacity="0"/></linearGradient><filter id="J" x="517.929" y="380.797" width="397.193" height="319.324" filterUnits="userSpaceOnUse" color-interpolation-filters="sRGB"><feFlood flood-opacity="0" result="BackgroundImageFix"/><feGaussianBlur in="BackgroundImage" stdDeviation="53.122"/><feComposite in2="SourceAlpha" operator="in" result="effect1_backgroundBlur"/><feBlend in="SourceGraphic" in2="effect1_backgroundBlur" result="shape"/></filter><filter id="g" x="490.938" y="823.443" width="345.845" height="279.728" filterUnits="userSpaceOnUse" color-interpolation-filters="sRGB"><feFlood flood-opacity="0" result="BackgroundImageFix"/><feGaussianBlur in="BackgroundImage" stdDeviation="7.244"/><feComposite in2="SourceAlpha" operator="in" result="effect1_backgroundBlur"/><feBlend in="SourceGraphic" in2="effect1_backgroundBlur" result="shape"/></filter><filter id="aq" x="861.491" y="163.375" width="132.306" height="429.347" filterUnits="userSpaceOnUse" color-interpolation-filters="sRGB"><feFlood flood-opacity="0" result="BackgroundImageFix"/><feBlend in="SourceGraphic" in2="BackgroundImageFix" result="shape"/><feGaussianBlur stdDeviation="10.463" result="effect1_foregroundBlur"/></filter><filter id="ao" x="653.786" y="163.375" width="128.956" height="429.347" filterUnits="userSpaceOnUse" color-interpolation-filters="sRGB"><feFlood flood-opacity="0" result="BackgroundImageFix"/><feBlend in="SourceGraphic" in2="BackgroundImageFix" result="shape"/><feGaussianBlur stdDeviation="10.463" result="effect1_foregroundBlur"/></filter><filter id="am" x="757.639" y="103.073" width="128.956" height="428.23" filterUnits="userSpaceOnUse" color-interpolation-filters="sRGB"><feFlood flood-opacity="0" result="BackgroundImageFix"/><feBlend in="SourceGraphic" in2="BackgroundImageFix" result="shape"/><feGaussianBlur stdDeviation="10.463" result="effect1_foregroundBlur"/></filter><filter id="aj" x="806.465" y="708.263" width="122.128" height="188.427" filterUnits="userSpaceOnUse" color-interpolation-filters="sRGB"><feFlood flood-opacity="0" result="BackgroundImageFix"/><feGaussianBlur in="BackgroundImage" stdDeviation="7.244"/><feComposite in2="SourceAlpha" operator="in" result="effect1_backgroundBlur"/><feBlend in="SourceGraphic" in2="effect1_backgroundBlur" result="shape"/></filter><filter id="ag" x="806.465" y="586.199" width="122.128" height="188.427" filterUnits="userSpaceOnUse" color-interpolation-filters="sRGB"><feFlood flood-opacity="0" result="BackgroundImageFix"/><feGaussianBlur in="BackgroundImage" stdDeviation="7.244"/><feComposite in2="SourceAlpha" operator="in" result="effect1_backgroundBlur"/><feBlend in="SourceGraphic" in2="effect1_backgroundBlur" result="shape"/></filter><filter id="ad" x="714.922" y="708.263" width="122.128" height="188.427" filterUnits="userSpaceOnUse" color-interpolation-filters="sRGB"><feFlood flood-opacity="0" result="BackgroundImageFix"/><feGaussianBlur in="BackgroundImage" stdDeviation="7.244"/><feComposite in2="SourceAlpha" operator="in" result="effect1_backgroundBlur"/><feBlend in="SourceGraphic" in2="effect1_backgroundBlur" result="shape"/></filter><filter id="aa" x="714.922" y="586.199" width="122.128" height="188.427" filterUnits="userSpaceOnUse" color-interpolation-filters="sRGB"><feFlood flood-opacity="0" result="BackgroundImageFix"/><feGaussianBlur in="BackgroundImage" stdDeviation="7.244"/><feComposite in2="SourceAlpha" operator="in" result="effect1_backgroundBlur"/><feBlend in="SourceGraphic" in2="effect1_backgroundBlur" result="shape"/></filter><filter id="Y" x="623.157" y="563.893" width="397.193" height="319.324" filterUnits="userSpaceOnUse" color-interpolation-filters="sRGB"><feFlood flood-opacity="0" result="BackgroundImageFix"/><feGaussianBlur in="BackgroundImage" stdDeviation="53.122"/><feComposite in2="SourceAlpha" operator="in" result="effect1_backgroundBlur"/><feBlend in="SourceGraphic" in2="effect1_backgroundBlur" result="shape"/></filter><filter id="X" x="623.157" y="441.829" width="397.193" height="319.324" filterUnits="userSpaceOnUse" color-interpolation-filters="sRGB"><feFlood flood-opacity="0" result="BackgroundImageFix"/><feGaussianBlur in="BackgroundImage" stdDeviation="53.122"/><feComposite in2="SourceAlpha" operator="in" result="effect1_backgroundBlur"/><feBlend in="SourceGraphic" in2="effect1_backgroundBlur" result="shape"/></filter><filter id="V" x="702.043" y="648.036" width="120.518" height="186.817" filterUnits="userSpaceOnUse" color-interpolation-filters="sRGB"><feFlood flood-opacity="0" result="BackgroundImageFix"/><feGaussianBlur in="BackgroundImage" stdDeviation="7.244"/><feComposite in2="SourceAlpha" operator="in" result="effect1_backgroundBlur"/><feBlend in="SourceGraphic" in2="effect1_backgroundBlur" result="shape"/></filter><filter id="T" x="702.043" y="525.971" width="120.518" height="186.817" filterUnits="userSpaceOnUse" color-interpolation-filters="sRGB"><feFlood flood-opacity="0" result="BackgroundImageFix"/><feGaussianBlur in="BackgroundImage" stdDeviation="7.244"/><feComposite in2="SourceAlpha" operator="in" result="effect1_backgroundBlur"/><feBlend in="SourceGraphic" in2="effect1_backgroundBlur" result="shape"/></filter><filter id="Q" x="609.695" y="647.232" width="122.128" height="188.427" filterUnits="userSpaceOnUse" color-interpolation-filters="sRGB"><feFlood flood-opacity="0" result="BackgroundImageFix"/><feGaussianBlur in="BackgroundImage" stdDeviation="7.244"/><feComposite in2="SourceAlpha" operator="in" result="effect1_backgroundBlur"/><feBlend in="SourceGraphic" in2="effect1_backgroundBlur" result="shape"/></filter><filter id="N" x="609.695" y="525.166" width="122.128" height="188.427" filterUnits="userSpaceOnUse" color-interpolation-filters="sRGB"><feFlood flood-opacity="0" result="BackgroundImageFix"/><feGaussianBlur in="BackgroundImage" stdDeviation="7.244"/><feComposite in2="SourceAlpha" operator="in" result="effect1_backgroundBlur"/><feBlend in="SourceGraphic" in2="effect1_backgroundBlur" result="shape"/></filter><filter id="L" x="517.929" y="502.861" width="397.193" height="319.324" filterUnits="userSpaceOnUse" color-interpolation-filters="sRGB"><feFlood flood-opacity="0" result="BackgroundImageFix"/><feGaussianBlur in="BackgroundImage" stdDeviation="53.122"/><feComposite in2="SourceAlpha" operator="in" result="effect1_backgroundBlur"/><feBlend in="SourceGraphic" in2="effect1_backgroundBlur" result="shape"/></filter><filter id="as" x="757.639" y="229.486" width="128.956" height="429.347" filterUnits="userSpaceOnUse" color-interpolation-filters="sRGB"><feFlood flood-opacity="0" result="BackgroundImageFix"/><feBlend in="SourceGraphic" in2="BackgroundImageFix" result="shape"/><feGaussianBlur stdDeviation="10.463" result="effect1_foregroundBlur"/></filter><filter id="G" x="911.694" y="647.232" width="122.128" height="188.427" filterUnits="userSpaceOnUse" color-interpolation-filters="sRGB"><feFlood flood-opacity="0" result="BackgroundImageFix"/><feGaussianBlur in="BackgroundImage" stdDeviation="7.244"/><feComposite in2="SourceAlpha" operator="in" result="effect1_backgroundBlur"/><feBlend in="SourceGraphic" in2="effect1_backgroundBlur" result="shape"/></filter><filter id="D" x="911.694" y="525.166" width="122.128" height="188.427" filterUnits="userSpaceOnUse" color-interpolation-filters="sRGB"><feFlood flood-opacity="0" result="BackgroundImageFix"/><feGaussianBlur in="BackgroundImage" stdDeviation="7.244"/><feComposite in2="SourceAlpha" operator="in" result="effect1_backgroundBlur"/><feBlend in="SourceGraphic" in2="effect1_backgroundBlur" result="shape"/></filter><filter id="A" x="820.15" y="647.232" width="122.128" height="188.427" filterUnits="userSpaceOnUse" color-interpolation-filters="sRGB"><feFlood flood-opacity="0" result="BackgroundImageFix"/><feGaussianBlur in="BackgroundImage" stdDeviation="7.244"/><feComposite in2="SourceAlpha" operator="in" result="effect1_backgroundBlur"/><feBlend in="SourceGraphic" in2="effect1_backgroundBlur" result="shape"/></filter><filter id="y" x="820.955" y="525.971" width="120.518" height="186.817" filterUnits="userSpaceOnUse" color-interpolation-filters="sRGB"><feFlood flood-opacity="0" result="BackgroundImageFix"/><feGaussianBlur in="BackgroundImage" stdDeviation="7.244"/><feComposite in2="SourceAlpha" operator="in" result="effect1_backgroundBlur"/><feBlend in="SourceGraphic" in2="effect1_backgroundBlur" result="shape"/></filter><filter id="x" x="728.384" y="502.861" width="397.193" height="319.324" filterUnits="userSpaceOnUse" color-interpolation-filters="sRGB"><feFlood flood-opacity="0" result="BackgroundImageFix"/><feGaussianBlur in="BackgroundImage" stdDeviation="53.122"/><feComposite in2="SourceAlpha" operator="in" result="effect1_backgroundBlur"/><feBlend in="SourceGraphic" in2="effect1_backgroundBlur" result="shape"/></filter><filter id="w" x="728.384" y="380.797" width="397.193" height="319.324" filterUnits="userSpaceOnUse" color-interpolation-filters="sRGB"><feFlood flood-opacity="0" result="BackgroundImageFix"/><feGaussianBlur in="BackgroundImage" stdDeviation="53.122"/><feComposite in2="SourceAlpha" operator="in" result="effect1_backgroundBlur"/><feBlend in="SourceGraphic" in2="effect1_backgroundBlur" result="shape"/></filter><filter id="u" x="807.27" y="587.003" width="120.518" height="186.817" filterUnits="userSpaceOnUse" color-interpolation-filters="sRGB"><feFlood flood-opacity="0" result="BackgroundImageFix"/><feGaussianBlur in="BackgroundImage" stdDeviation="7.244"/><feComposite in2="SourceAlpha" operator="in" result="effect1_backgroundBlur"/><feBlend in="SourceGraphic" in2="effect1_backgroundBlur" result="shape"/></filter><filter id="s" x="807.27" y="464.939" width="120.518" height="186.817" filterUnits="userSpaceOnUse" color-interpolation-filters="sRGB"><feFlood flood-opacity="0" result="BackgroundImageFix"/><feGaussianBlur in="BackgroundImage" stdDeviation="7.244"/><feComposite in2="SourceAlpha" operator="in" result="effect1_backgroundBlur"/><feBlend in="SourceGraphic" in2="effect1_backgroundBlur" result="shape"/></filter><filter id="q" x="715.727" y="587.003" width="120.518" height="186.817" filterUnits="userSpaceOnUse" color-interpolation-filters="sRGB"><feFlood flood-opacity="0" result="BackgroundImageFix"/><feGaussianBlur in="BackgroundImage" stdDeviation="7.244"/><feComposite in2="SourceAlpha" operator="in" result="effect1_backgroundBlur"/><feBlend in="SourceGraphic" in2="effect1_backgroundBlur" result="shape"/></filter><filter id="o" x="715.727" y="464.939" width="120.518" height="186.817" filterUnits="userSpaceOnUse" color-interpolation-filters="sRGB"><feFlood flood-opacity="0" result="BackgroundImageFix"/><feGaussianBlur in="BackgroundImage" stdDeviation="7.244"/><feComposite in2="SourceAlpha" operator="in" result="effect1_backgroundBlur"/><feBlend in="SourceGraphic" in2="effect1_backgroundBlur" result="shape"/></filter><filter id="n" x="623.962" y="442.634" width="395.583" height="317.714" filterUnits="userSpaceOnUse" color-interpolation-filters="sRGB"><feFlood flood-opacity="0" result="BackgroundImageFix"/><feGaussianBlur in="BackgroundImage" stdDeviation="53.122"/><feComposite in2="SourceAlpha" operator="in" result="effect1_backgroundBlur"/><feBlend in="SourceGraphic" in2="effect1_backgroundBlur" result="shape"/></filter><filter id="l" x="623.157" y="319.765" width="397.193" height="319.324" filterUnits="userSpaceOnUse" color-interpolation-filters="sRGB"><feFlood flood-opacity="0" result="BackgroundImageFix"/><feGaussianBlur in="BackgroundImage" stdDeviation="53.122"/><feComposite in2="SourceAlpha" operator="in" result="effect1_backgroundBlur"/><feBlend in="SourceGraphic" in2="effect1_backgroundBlur" result="shape"/></filter><filter id="k" x="617.733" y="419.569" width="408.04" height="469.073" filterUnits="userSpaceOnUse" color-interpolation-filters="sRGB"><feFlood flood-opacity="0" result="BackgroundImageFix"/><feGaussianBlur in="BackgroundImage" stdDeviation="3.22"/><feComposite in2="SourceAlpha" operator="in" result="effect1_backgroundBlur"/><feBlend in="SourceGraphic" in2="effect1_backgroundBlur" result="shape"/></filter><filter id="j" x=".117" y="-175.804" width="1641" height="1641" filterUnits="userSpaceOnUse" color-interpolation-filters="sRGB"><feFlood flood-opacity="0" result="BackgroundImageFix"/><feBlend in="SourceGraphic" in2="BackgroundImageFix" result="shape"/><feGaussianBlur stdDeviation="301.5" result="effect1_foregroundBlur"/></filter><filter id="e" x="807.003" y="824.248" width="344.236" height="278.118" filterUnits="userSpaceOnUse" color-interpolation-filters="sRGB"><feFlood flood-opacity="0" result="BackgroundImageFix"/><feGaussianBlur in="BackgroundImage" stdDeviation="7.244"/><feComposite in2="SourceAlpha" operator="in" result="effect1_backgroundBlur"/><feBlend in="SourceGraphic" in2="effect1_backgroundBlur" result="shape"/></filter></defs></svg>