<svg viewBox="0 0 438 701" fill="none" xmlns="http://www.w3.org/2000/svg">
<g clip-path="url(#clip0)">
<g filter="url(#filter0_b)">
<path d="M438.028 485.659L219.014 612.2L0 485.659L219.014 359.147L438.028 485.659Z" fill="#00BCFD" fill-opacity="0.2"/>
</g>
<g filter="url(#filter1_b)">
<path d="M219.015 612.2V658.738L438.029 532.198V485.66L219.015 612.2Z" fill="url(#paint0_linear)"/>
<path d="M219.015 612.2V658.738L438.029 532.198V485.66L219.015 612.2Z" fill="black" fill-opacity="0.4"/>
</g>
<g filter="url(#filter2_b)">
<path d="M219.014 658.738L0 532.198V485.66L219.014 612.2V658.738Z" fill="url(#paint1_linear)"/>
<path d="M219.014 658.738L0 532.198V485.66L219.014 612.2V658.738Z" fill="#96FFA1" fill-opacity="0.2"/>
</g>
<path d="M376.209 372.733L219.014 463.559L61.7906 372.733L219.014 281.907L376.209 372.733Z" fill="url(#paint2_linear)"/>
<g filter="url(#filter3_b)">
<path d="M219.015 463.558V568.226L376.21 477.4V372.733L219.015 463.558Z" fill="url(#paint3_linear)"/>
<path d="M219.015 463.558V568.226L376.21 477.4V372.733L219.015 463.558Z" fill="black" fill-opacity="0.4"/>
</g>
<path d="M219.014 568.226L61.7906 477.4V372.733L219.014 463.558V568.226Z" fill="url(#paint4_linear)"/>
<g filter="url(#filter4_f)">
<path d="M111.286 506.08L91.1348 494.432L90.964 387.543L111.115 399.191L111.286 506.08Z" fill="#04FFA4"/>
</g>
<g filter="url(#filter5_f)">
<path d="M143.733 524.735L123.582 513.115L123.439 406.198L143.562 417.846L143.733 524.735Z" fill="#04FFA4"/>
</g>
<g filter="url(#filter6_f)">
<path d="M175.696 543.162L155.573 531.514L155.402 424.625L175.553 436.274L175.696 543.162Z" fill="#04FFA4"/>
</g>
<path d="M111.286 506.08L91.1348 494.432L90.964 387.543L111.115 399.192L111.286 506.08Z" fill="#04FFA4"/>
<path d="M143.733 524.735L123.582 513.115L123.439 406.198L143.562 417.846L143.733 524.735Z" fill="#04FFA4"/>
<path d="M175.696 543.162L155.573 531.514L155.402 424.625L175.553 436.274L175.696 543.162Z" fill="#04FFA4"/>
<path d="M111.286 506.08L91.1348 494.432L90.964 387.543L111.115 399.192L111.286 506.08Z" fill="#04FFA4"/>
<path d="M143.733 524.735L123.582 513.115L123.439 406.198L143.562 417.846L143.733 524.735Z" fill="#04FFA4"/>
<path d="M175.696 543.162L155.573 531.514L155.402 424.625L175.553 436.274L175.696 543.162Z" fill="#04FFA4"/>
<g filter="url(#filter7_b)">
<path d="M438.028 344.254L219.014 470.795L0 344.254L219.014 217.742L438.028 344.254Z" fill="#00BCFD" fill-opacity="0.2"/>
</g>
<g filter="url(#filter8_b)">
<path d="M219.015 470.394V516.932L438.029 390.391V343.853L219.015 470.394Z" fill="url(#paint5_linear)"/>
</g>
<g filter="url(#filter9_b)">
<path d="M219.014 516.233L0 389.692V343.154L219.014 469.695V516.233Z" fill="url(#paint6_linear)"/>
<path d="M219.014 516.233L0 389.692V343.154L219.014 469.695V516.233Z" fill="#96FFA1" fill-opacity="0.2"/>
</g>
<g filter="url(#filter10_b)">
<path d="M376.14 252.881L218.945 343.706L61.7216 252.881L218.945 162.055L376.14 252.881Z" fill="#00BCFD" fill-opacity="0.2"/>
</g>
<path d="M353.297 252.515L219.014 330.097L84.7021 252.515L219.014 174.905L353.297 252.515Z" fill="url(#paint7_linear)"/>
<path d="M319.741 252.515L219.015 310.702L118.288 252.515L219.015 194.3L319.741 252.515Z" fill="url(#paint8_linear)"/>
<path d="M285.131 252.515L219.014 290.708L152.869 252.515L219.014 214.294L285.131 252.515Z" fill="url(#paint9_linear)"/>
<path d="M254.136 252.515L219.014 272.794L183.892 252.515L219.014 232.208L254.136 252.515Z" fill="#142046" stroke="#0D5161" stroke-width="2" stroke-miterlimit="10"/>
<g filter="url(#filter11_b)">
<path d="M219.015 343.341V420.837L376.21 330.04V252.515L219.015 343.341Z" fill="url(#paint10_linear)"/>
<path d="M219.015 343.341V420.837L376.21 330.04V252.515L219.015 343.341Z" fill="black" fill-opacity="0.4"/>
</g>
<g filter="url(#filter12_b)">
<path d="M219.014 420.837L61.7906 330.04V252.515L219.014 343.341V420.837Z" fill="url(#paint11_linear)"/>
</g>
<g filter="url(#filter13_f)">
<path d="M111.286 358.663L91.1348 347.043L90.964 269.49L111.115 281.138L111.286 358.663Z" fill="#04FFA4"/>
</g>
<g filter="url(#filter14_f)">
<path d="M143.733 377.318L123.582 365.698L123.439 288.145L143.562 299.765L143.733 377.318Z" fill="#04FFA4"/>
</g>
<g filter="url(#filter15_f)">
<path d="M175.696 395.745L155.573 384.125L155.402 306.572L175.553 318.22L175.696 395.745Z" fill="#04FFA4"/>
</g>
<path d="M111.286 358.663L91.1348 347.043L90.964 269.49L111.115 281.138L111.286 358.663Z" fill="#04FFA4"/>
<path d="M143.733 377.318L123.582 365.698L123.439 288.145L143.562 299.765L143.733 377.318Z" fill="#04FFA4"/>
<path d="M175.696 395.745L155.573 384.125L155.402 306.572L175.553 318.22L175.696 395.745Z" fill="#04FFA4"/>
<g filter="url(#filter16_f)">
<path d="M183.892 252.714L219.014 272.793L254.136 252.714V-42.2621H183.152L183.892 252.714Z" fill="url(#paint12_linear)"/>
</g>
<path d="M183.892 252.714L219.014 272.793L254.136 252.714V-42.2621H183.152L183.892 252.714Z" fill="url(#paint13_linear)"/>
<g filter="url(#filter17_b)">
<path d="M220.115 611.795V566.45L375.535 477.245V450.855L436.885 486.165L220.115 611.795Z" fill="url(#paint14_linear)"/>
<path d="M220.115 611.795V566.45L375.535 477.245V450.855L436.885 486.165L220.115 611.795Z" fill="black" fill-opacity="0.4"/>
</g>
<g filter="url(#filter18_b)">
<path d="M219 420.749V470.555L437.256 344.553L375.907 307.756V329.314L219 420.749Z" fill="url(#paint15_linear)"/>
<path d="M219 420.749V470.555L437.256 344.553L375.907 307.756V329.314L219 420.749Z" fill="black" fill-opacity="0.4"/>
</g>
</g>
<defs>
<filter id="filter0_b" x="-66" y="293.147" width="570.028" height="385.053" filterUnits="userSpaceOnUse" color-interpolation-filters="sRGB">
<feFlood flood-opacity="0" result="BackgroundImageFix"/>
<feGaussianBlur in="BackgroundImage" stdDeviation="33"/>
<feComposite in2="SourceAlpha" operator="in" result="effect1_backgroundBlur"/>
<feBlend mode="normal" in="SourceGraphic" in2="effect1_backgroundBlur" result="shape"/>
</filter>
<filter id="filter1_b" x="210.015" y="476.66" width="237.014" height="191.078" filterUnits="userSpaceOnUse" color-interpolation-filters="sRGB">
<feFlood flood-opacity="0" result="BackgroundImageFix"/>
<feGaussianBlur in="BackgroundImage" stdDeviation="4.5"/>
<feComposite in2="SourceAlpha" operator="in" result="effect1_backgroundBlur"/>
<feBlend mode="normal" in="SourceGraphic" in2="effect1_backgroundBlur" result="shape"/>
</filter>
<filter id="filter2_b" x="-9" y="476.66" width="237.014" height="191.078" filterUnits="userSpaceOnUse" color-interpolation-filters="sRGB">
<feFlood flood-opacity="0" result="BackgroundImageFix"/>
<feGaussianBlur in="BackgroundImage" stdDeviation="4.5"/>
<feComposite in2="SourceAlpha" operator="in" result="effect1_backgroundBlur"/>
<feBlend mode="normal" in="SourceGraphic" in2="effect1_backgroundBlur" result="shape"/>
</filter>
<filter id="filter3_b" x="210.015" y="363.733" width="175.195" height="213.493" filterUnits="userSpaceOnUse" color-interpolation-filters="sRGB">
<feFlood flood-opacity="0" result="BackgroundImageFix"/>
<feGaussianBlur in="BackgroundImage" stdDeviation="4.5"/>
<feComposite in2="SourceAlpha" operator="in" result="effect1_backgroundBlur"/>
<feBlend mode="normal" in="SourceGraphic" in2="effect1_backgroundBlur" result="shape"/>
</filter>
<filter id="filter4_f" x="18.964" y="315.543" width="164.322" height="262.537" filterUnits="userSpaceOnUse" color-interpolation-filters="sRGB">
<feFlood flood-opacity="0" result="BackgroundImageFix"/>
<feBlend mode="normal" in="SourceGraphic" in2="BackgroundImageFix" result="shape"/>
<feGaussianBlur stdDeviation="36" result="effect1_foregroundBlur"/>
</filter>
<filter id="filter5_f" x="51.4393" y="334.198" width="164.293" height="262.537" filterUnits="userSpaceOnUse" color-interpolation-filters="sRGB">
<feFlood flood-opacity="0" result="BackgroundImageFix"/>
<feBlend mode="normal" in="SourceGraphic" in2="BackgroundImageFix" result="shape"/>
<feGaussianBlur stdDeviation="36" result="effect1_foregroundBlur"/>
</filter>
<filter id="filter6_f" x="83.4022" y="352.625" width="164.293" height="262.538" filterUnits="userSpaceOnUse" color-interpolation-filters="sRGB">
<feFlood flood-opacity="0" result="BackgroundImageFix"/>
<feBlend mode="normal" in="SourceGraphic" in2="BackgroundImageFix" result="shape"/>
<feGaussianBlur stdDeviation="36" result="effect1_foregroundBlur"/>
</filter>
<filter id="filter7_b" x="-66" y="151.742" width="570.028" height="385.053" filterUnits="userSpaceOnUse" color-interpolation-filters="sRGB">
<feFlood flood-opacity="0" result="BackgroundImageFix"/>
<feGaussianBlur in="BackgroundImage" stdDeviation="33"/>
<feComposite in2="SourceAlpha" operator="in" result="effect1_backgroundBlur"/>
<feBlend mode="normal" in="SourceGraphic" in2="effect1_backgroundBlur" result="shape"/>
</filter>
<filter id="filter8_b" x="210.015" y="334.853" width="237.014" height="191.078" filterUnits="userSpaceOnUse" color-interpolation-filters="sRGB">
<feFlood flood-opacity="0" result="BackgroundImageFix"/>
<feGaussianBlur in="BackgroundImage" stdDeviation="4.5"/>
<feComposite in2="SourceAlpha" operator="in" result="effect1_backgroundBlur"/>
<feBlend mode="normal" in="SourceGraphic" in2="effect1_backgroundBlur" result="shape"/>
</filter>
<filter id="filter9_b" x="-9" y="334.154" width="237.014" height="191.078" filterUnits="userSpaceOnUse" color-interpolation-filters="sRGB">
<feFlood flood-opacity="0" result="BackgroundImageFix"/>
<feGaussianBlur in="BackgroundImage" stdDeviation="4.5"/>
<feComposite in2="SourceAlpha" operator="in" result="effect1_backgroundBlur"/>
<feBlend mode="normal" in="SourceGraphic" in2="effect1_backgroundBlur" result="shape"/>
</filter>
<filter id="filter10_b" x="-4.27838" y="96.0552" width="446.418" height="313.651" filterUnits="userSpaceOnUse" color-interpolation-filters="sRGB">
<feFlood flood-opacity="0" result="BackgroundImageFix"/>
<feGaussianBlur in="BackgroundImage" stdDeviation="33"/>
<feComposite in2="SourceAlpha" operator="in" result="effect1_backgroundBlur"/>
<feBlend mode="normal" in="SourceGraphic" in2="effect1_backgroundBlur" result="shape"/>
</filter>
<filter id="filter11_b" x="210.015" y="243.515" width="175.195" height="186.322" filterUnits="userSpaceOnUse" color-interpolation-filters="sRGB">
<feFlood flood-opacity="0" result="BackgroundImageFix"/>
<feGaussianBlur in="BackgroundImage" stdDeviation="4.5"/>
<feComposite in2="SourceAlpha" operator="in" result="effect1_backgroundBlur"/>
<feBlend mode="normal" in="SourceGraphic" in2="effect1_backgroundBlur" result="shape"/>
</filter>
<filter id="filter12_b" x="52.7906" y="243.515" width="175.224" height="186.322" filterUnits="userSpaceOnUse" color-interpolation-filters="sRGB">
<feFlood flood-opacity="0" result="BackgroundImageFix"/>
<feGaussianBlur in="BackgroundImage" stdDeviation="4.5"/>
<feComposite in2="SourceAlpha" operator="in" result="effect1_backgroundBlur"/>
<feBlend mode="normal" in="SourceGraphic" in2="effect1_backgroundBlur" result="shape"/>
</filter>
<filter id="filter13_f" x="18.964" y="197.49" width="164.322" height="233.174" filterUnits="userSpaceOnUse" color-interpolation-filters="sRGB">
<feFlood flood-opacity="0" result="BackgroundImageFix"/>
<feBlend mode="normal" in="SourceGraphic" in2="BackgroundImageFix" result="shape"/>
<feGaussianBlur stdDeviation="36" result="effect1_foregroundBlur"/>
</filter>
<filter id="filter14_f" x="51.4393" y="216.145" width="164.293" height="233.174" filterUnits="userSpaceOnUse" color-interpolation-filters="sRGB">
<feFlood flood-opacity="0" result="BackgroundImageFix"/>
<feBlend mode="normal" in="SourceGraphic" in2="BackgroundImageFix" result="shape"/>
<feGaussianBlur stdDeviation="36" result="effect1_foregroundBlur"/>
</filter>
<filter id="filter15_f" x="83.4022" y="234.572" width="164.293" height="233.174" filterUnits="userSpaceOnUse" color-interpolation-filters="sRGB">
<feFlood flood-opacity="0" result="BackgroundImageFix"/>
<feBlend mode="normal" in="SourceGraphic" in2="BackgroundImageFix" result="shape"/>
<feGaussianBlur stdDeviation="36" result="effect1_foregroundBlur"/>
</filter>
<filter id="filter16_f" x="166.152" y="-59.2621" width="104.984" height="349.056" filterUnits="userSpaceOnUse" color-interpolation-filters="sRGB">
<feFlood flood-opacity="0" result="BackgroundImageFix"/>
<feBlend mode="normal" in="SourceGraphic" in2="BackgroundImageFix" result="shape"/>
<feGaussianBlur stdDeviation="8.5" result="effect1_foregroundBlur"/>
</filter>
<filter id="filter17_b" x="211.115" y="441.855" width="234.769" height="178.94" filterUnits="userSpaceOnUse" color-interpolation-filters="sRGB">
<feFlood flood-opacity="0" result="BackgroundImageFix"/>
<feGaussianBlur in="BackgroundImage" stdDeviation="4.5"/>
<feComposite in2="SourceAlpha" operator="in" result="effect1_backgroundBlur"/>
<feBlend mode="normal" in="SourceGraphic" in2="effect1_backgroundBlur" result="shape"/>
</filter>
<filter id="filter18_b" x="210" y="298.756" width="236.256" height="180.798" filterUnits="userSpaceOnUse" color-interpolation-filters="sRGB">
<feFlood flood-opacity="0" result="BackgroundImageFix"/>
<feGaussianBlur in="BackgroundImage" stdDeviation="4.5"/>
<feComposite in2="SourceAlpha" operator="in" result="effect1_backgroundBlur"/>
<feBlend mode="normal" in="SourceGraphic" in2="effect1_backgroundBlur" result="shape"/>
</filter>
<linearGradient id="paint0_linear" x1="328.522" y1="485.66" x2="328.522" y2="658.738" gradientUnits="userSpaceOnUse">
<stop stop-color="#085161"/>
<stop offset="1" stop-color="#085161" stop-opacity="0"/>
</linearGradient>
<linearGradient id="paint1_linear" x1="109.507" y1="485.66" x2="109.507" y2="658.738" gradientUnits="userSpaceOnUse">
<stop stop-color="#085161"/>
<stop offset="1" stop-color="#085161" stop-opacity="0"/>
</linearGradient>
<linearGradient id="paint2_linear" x1="219" y1="281.907" x2="219" y2="463.559" gradientUnits="userSpaceOnUse">
<stop stop-color="#085161"/>
<stop offset="1" stop-color="#085161" stop-opacity="0"/>
</linearGradient>
<linearGradient id="paint3_linear" x1="297.612" y1="372.733" x2="297.612" y2="568.226" gradientUnits="userSpaceOnUse">
<stop stop-color="#085161"/>
<stop offset="1" stop-color="#085161" stop-opacity="0"/>
</linearGradient>
<linearGradient id="paint4_linear" x1="140.402" y1="372.733" x2="140.402" y2="568.226" gradientUnits="userSpaceOnUse">
<stop stop-color="#085161"/>
<stop offset="1" stop-color="#085161" stop-opacity="0"/>
</linearGradient>
<linearGradient id="paint5_linear" x1="328.522" y1="343.853" x2="328.522" y2="516.932" gradientUnits="userSpaceOnUse">
<stop stop-color="#085161"/>
<stop offset="1" stop-color="#085161" stop-opacity="0"/>
</linearGradient>
<linearGradient id="paint6_linear" x1="109.507" y1="343.154" x2="109.507" y2="516.233" gradientUnits="userSpaceOnUse">
<stop stop-color="#085161"/>
<stop offset="1" stop-color="#085161" stop-opacity="0"/>
</linearGradient>
<linearGradient id="paint7_linear" x1="219" y1="174.905" x2="219" y2="330.097" gradientUnits="userSpaceOnUse">
<stop stop-color="#064E5E"/>
<stop offset="1" stop-color="#085161" stop-opacity="0"/>
</linearGradient>
<linearGradient id="paint8_linear" x1="219.015" y1="194.3" x2="219.015" y2="310.702" gradientUnits="userSpaceOnUse">
<stop stop-color="#085161"/>
<stop offset="1" stop-color="#085161" stop-opacity="0"/>
</linearGradient>
<linearGradient id="paint9_linear" x1="219" y1="214.294" x2="219" y2="290.708" gradientUnits="userSpaceOnUse">
<stop stop-color="#085161"/>
<stop offset="1" stop-color="#085161" stop-opacity="0"/>
</linearGradient>
<linearGradient id="paint10_linear" x1="297.612" y1="252.515" x2="297.612" y2="420.837" gradientUnits="userSpaceOnUse">
<stop stop-color="#085161"/>
<stop offset="1" stop-color="#085161" stop-opacity="0"/>
</linearGradient>
<linearGradient id="paint11_linear" x1="140.402" y1="252.515" x2="140.402" y2="420.837" gradientUnits="userSpaceOnUse">
<stop stop-color="#085161"/>
<stop offset="1" stop-color="#085161" stop-opacity="0"/>
</linearGradient>
<linearGradient id="paint12_linear" x1="218.541" y1="268.273" x2="218.645" y2="-110.388" gradientUnits="userSpaceOnUse">
<stop stop-color="#04FFA4"/>
<stop offset="0.365214" stop-color="#0D0619"/>
<stop offset="0.604288" stop-color="#060043" stop-opacity="0"/>
</linearGradient>
<linearGradient id="paint13_linear" x1="218.541" y1="268.273" x2="218.645" y2="-110.388" gradientUnits="userSpaceOnUse">
<stop stop-color="#04FFA4"/>
<stop offset="0.451042" stop-color="#060043" stop-opacity="0"/>
</linearGradient>
<linearGradient id="paint14_linear" x1="328.5" y1="450.855" x2="328.5" y2="611.795" gradientUnits="userSpaceOnUse">
<stop stop-color="#085161"/>
<stop offset="1" stop-color="#085161" stop-opacity="0"/>
</linearGradient>
<linearGradient id="paint15_linear" x1="328.128" y1="307.756" x2="328.128" y2="470.555" gradientUnits="userSpaceOnUse">
<stop stop-color="#085161"/>
<stop offset="1" stop-color="#085161" stop-opacity="0"/>
</linearGradient>
<clipPath id="clip0">
<rect width="438" height="701" fill="white"/>
</clipPath>
</defs>
</svg>
