<svg width="141" height="42" viewBox="0 0 141 42" fill="none" xmlns="http://www.w3.org/2000/svg">
<path fill-rule="evenodd" clip-rule="evenodd" d="M41.9778 21C41.9778 32.348 32.5808 41.5474 20.9889 41.5474C9.39706 41.5474 0 32.348 0 21C0 9.652 9.39706 0.452637 20.9889 0.452637C32.5808 0.452637 41.9778 9.652 41.9778 21ZM10.5418 29.4338C11.4946 29.7012 12.4817 29.8322 13.4726 29.823C15.0119 29.8894 16.5479 29.6316 17.977 29.0668C20.4298 28.0009 21.4624 25.9842 21.8096 23.5164C21.8453 23.2604 21.6997 23.2853 21.5749 23.3065C21.5423 23.3121 21.5111 23.3174 21.4849 23.3174H17.6839C17.3638 23.313 17.2511 23.4014 17.1699 23.711C16.7235 25.4049 15.6234 26.139 13.8198 25.9223C13.6128 25.9222 13.408 25.8803 13.2182 25.7993C13.0283 25.7183 12.8575 25.5999 12.7163 25.4514C12.5751 25.303 12.4665 25.1276 12.3972 24.9362C12.328 24.7449 12.2996 24.5416 12.3138 24.339C12.3101 24.1291 12.3222 23.9192 12.3499 23.711C12.4158 23.3214 12.4809 22.9333 12.5458 22.5463L12.5469 22.5397L12.5469 22.5393L12.5469 22.5393C12.819 20.9166 13.0877 19.3138 13.4005 17.7051C13.7477 15.9449 14.8974 15.1135 16.701 15.2462C17.6556 15.3088 18.6131 15.1777 19.5138 14.8612C20.4145 14.5446 21.239 14.0494 21.9358 13.4064C22.1658 13.2118 22.1252 13.0968 21.9358 12.911C21.4655 12.4419 20.896 12.0796 20.2675 11.8496C18.6798 11.344 16.9927 11.2137 15.3438 11.4693C12.0388 11.8319 9.77982 13.7248 9.03135 16.8914C8.75328 18.0674 8.54263 19.2687 8.33365 20.4605C8.22748 21.0659 8.12175 21.6689 8.00783 22.2648C7.73749 23.4159 7.6148 24.5955 7.64261 25.7764C7.76435 27.6648 8.70671 28.8633 10.5418 29.4338ZM24.3977 18.7357C22.9007 20.1465 21.034 20.3853 19.1313 20.5445C18.9718 20.5577 18.8112 20.5644 18.6511 20.571C18.4899 20.5776 18.3293 20.5843 18.1709 20.5976C17.8553 20.6241 17.7471 20.5976 17.8147 20.2349C18.0447 19.0497 18.2656 17.8556 18.455 16.6615C18.4975 16.4071 18.6398 16.4037 18.8161 16.3994H18.8161C18.8452 16.3987 18.8752 16.398 18.9059 16.3961C20.2667 16.3749 21.5872 15.9391 22.6843 15.1489C23.6814 14.3934 24.4103 13.3488 24.7674 12.1637C24.7748 12.1027 24.7951 12.0439 24.827 11.991C24.8588 11.9381 24.9016 11.8923 24.9525 11.8566C25.0034 11.8208 25.0613 11.7958 25.1226 11.7832C25.1839 11.7706 25.2472 11.7706 25.3085 11.7834H29.7092C30.0879 11.7834 30.124 11.8939 30.0654 12.2256C29.0373 17.9367 28.0168 23.6447 27.0038 29.3499C26.9452 29.6772 26.8325 29.7612 26.5079 29.7568H22.7519C22.4048 29.7568 22.3011 29.6993 22.3867 29.3145C22.937 26.4926 23.4722 23.6647 24.0071 20.8382C24.1252 20.2139 24.2433 19.5897 24.3616 18.9656C24.3751 18.917 24.3842 18.8462 24.3977 18.7357ZM29.0148 29.7435H31.3008H31.3013C32.0677 29.7435 32.8295 29.7435 33.6139 29.7523C33.9656 29.7523 34.0828 29.6329 34.1324 29.31C34.3308 28.0422 34.5457 26.7759 34.7772 25.511C34.8313 25.197 34.7096 25.1705 34.4481 25.1705H29.8219C29.4973 25.1705 29.4161 25.2855 29.371 25.5464C29.2755 26.062 29.1851 26.5777 29.0948 27.093C28.9637 27.8418 28.8326 28.59 28.6857 29.3366C28.6226 29.655 28.6676 29.7435 29.0148 29.7435Z" fill="currentColor"/>
<path d="M53.9488 29.3896C52.0851 29.3896 50.6032 28.8736 49.503 27.8417C48.4028 26.8097 47.8498 25.3267 47.8438 23.3925V19.8545C47.8438 17.9203 48.3968 16.4373 49.503 15.4053C50.6092 14.3734 52.0911 13.8574 53.9488 13.8574C55.8095 13.8574 57.2448 14.3557 58.2548 15.3523C59.2648 16.3488 59.7698 17.7154 59.7698 19.452V19.5714H57.1997V19.3768C57.2333 18.5343 56.9492 17.7093 56.4016 17.0594C55.8696 16.4579 55.049 16.1749 53.9488 16.1749C53.4796 16.1515 53.0106 16.2262 52.573 16.3939C52.1354 16.5617 51.7391 16.8186 51.4103 17.1478C50.7569 17.8886 50.4237 18.85 50.4815 19.8279V23.4544C50.4322 24.4231 50.7648 25.3733 51.4103 26.108C51.7372 26.4402 52.133 26.6997 52.5709 26.8691C53.0088 27.0385 53.4787 27.1137 53.9488 27.0898C55.0535 27.0898 55.8696 26.7847 56.4016 26.2053C56.9492 25.5554 57.2333 24.7303 57.1997 23.8879V23.5252H59.7698V23.8215C59.7698 25.5611 59.2648 26.9276 58.2548 27.9213C57.2448 28.9149 55.8095 29.4043 53.9488 29.3896Z" fill="#E6E7E8"/>
<path d="M60.2612 29.0889V14.1494H62.7682V19.9342H63.1424C63.2801 19.6585 63.4716 19.4121 63.706 19.2089C64.0078 18.9431 64.3602 18.7386 64.7431 18.6074C65.2662 18.4374 65.8154 18.358 66.3663 18.373C67.1382 18.3578 67.8999 18.5472 68.5711 18.9214C69.2063 19.2831 69.7226 19.8156 70.0591 20.456C70.4304 21.1762 70.6132 21.9756 70.5911 22.7823V29.0889H68.0842V22.9636C68.1124 22.6194 68.0703 22.2731 67.9603 21.9451C67.8504 21.617 67.6748 21.3138 67.4439 21.0531C67.201 20.836 66.9163 20.6687 66.6066 20.5608C66.2969 20.453 65.9684 20.4068 65.6403 20.4251C65.248 20.4061 64.8564 20.4737 64.4943 20.623C64.1322 20.7722 63.8089 20.9993 63.5482 21.2875C62.9956 21.9915 62.7231 22.8687 62.7817 23.7553V29.0889H60.2612Z" fill="#E6E7E8"/>
<path d="M74.9336 29.3898C74.2294 29.399 73.5308 29.265 72.8821 28.9961C72.302 28.7533 71.8013 28.3586 71.4347 27.8551C71.0642 27.3119 70.8766 26.6685 70.8982 26.0153C70.8817 25.3848 71.0696 24.7654 71.4347 24.2463C71.7983 23.7394 72.3021 23.345 72.8866 23.1097C73.568 22.8523 74.2937 22.7261 75.0238 22.7382H78.1394V22.1102C78.1503 21.8616 78.1096 21.6135 78.0197 21.3808C77.9298 21.1482 77.7926 20.9359 77.6164 20.7569C77.3944 20.566 77.1354 20.4211 76.855 20.3306C76.5745 20.2402 76.2784 20.2062 75.9842 20.2306C75.3901 20.1866 74.8014 20.367 74.3384 20.7347C73.9592 21.0766 73.703 21.5296 73.608 22.0261L71.2949 21.2787C71.4702 20.724 71.7552 20.2085 72.1336 19.7618C72.5589 19.2887 73.0918 18.9205 73.6892 18.6871C74.4337 18.3804 75.2354 18.2298 76.0428 18.2448C77.244 18.1767 78.4287 18.5451 79.3704 19.2797C79.7855 19.6616 80.1092 20.1289 80.3182 20.6482C80.5271 21.1674 80.6161 21.7256 80.5788 22.2827V26.4222C80.5788 26.8645 80.7817 27.0635 81.1875 27.0635H82.0892V29.089H80.3218C79.8617 29.1096 79.4083 28.9754 79.0367 28.7087C78.8726 28.5869 78.741 28.4279 78.653 28.2454C78.5651 28.0629 78.5235 27.8622 78.5317 27.6605V27.6163H78.162C78.041 27.8758 77.8897 28.1207 77.7111 28.346C77.4439 28.6639 77.1041 28.9154 76.7191 29.0802C76.1536 29.3082 75.5446 29.4138 74.9336 29.3898ZM75.3484 27.3819C76.0966 27.4181 76.83 27.1693 77.3955 26.6876C77.6575 26.4517 77.8636 26.1623 77.9991 25.8399C78.1347 25.5174 78.1964 25.1697 78.18 24.8212V24.6089H75.2177C74.7566 24.5885 74.3001 24.7073 73.9101 24.9495C73.7451 25.0602 73.6119 25.2107 73.5235 25.3865C73.435 25.5624 73.3942 25.7576 73.4051 25.9534C73.4011 26.1544 73.4466 26.3534 73.5376 26.5336C73.6287 26.7137 73.7626 26.8697 73.9281 26.9883C74.3448 27.2687 74.8438 27.407 75.3484 27.3819Z" fill="#E6E7E8"/>
<path d="M83.3471 17.2009C82.9143 17.2063 82.496 17.0479 82.1793 16.7586C81.867 16.449 81.6919 16.031 81.6919 15.5955C81.6919 15.1599 81.867 14.742 82.1793 14.4323C82.496 14.143 82.9143 13.9846 83.3471 13.9901C83.5654 13.9833 83.7829 14.0189 83.9872 14.0948C84.1915 14.1707 84.3785 14.2854 84.5374 14.4323C84.8382 14.7478 85.0056 15.1635 85.0056 15.5955C85.0056 16.0274 84.8382 16.4432 84.5374 16.7586C84.3785 16.9055 84.1915 17.0203 83.9872 17.0962C83.7829 17.172 83.5654 17.2076 83.3471 17.2009ZM82.1026 29.0888V18.5453H84.6096V29.0888H82.1026Z" fill="#E6E7E8"/>
<path d="M85.7231 29.0889V18.5455H88.185V20.0138H88.5592C88.7952 19.5614 89.1423 19.1739 89.5692 18.886C90.2459 18.4824 91.0338 18.2954 91.8237 18.3509C92.5952 18.3362 93.3561 18.5289 94.024 18.9081C94.6615 19.2771 95.1814 19.8132 95.5255 20.456C95.8945 21.177 96.0772 21.9758 96.0575 22.7823V29.0889H93.5506V22.9636C93.5779 22.6191 93.535 22.2727 93.4243 21.9447C93.3136 21.6166 93.1373 21.3135 92.9058 21.0531C92.6634 20.8352 92.3789 20.6673 92.0691 20.5594C91.7592 20.4515 91.4304 20.4058 91.1023 20.4251C90.7093 20.406 90.317 20.4736 89.9542 20.6229C89.5913 20.7721 89.2672 20.9992 89.0056 21.2875C88.4468 21.9893 88.1665 22.8661 88.2166 23.7553V29.0889H85.7231Z" fill="#E6E7E8"/>
<path d="M100.841 29.0889V14.1494H102.235V27.8594H110.26V29.0933L100.841 29.0889Z" fill="#E6E7E8"/>
<path d="M113.962 29.3894C113.272 29.3986 112.587 29.2723 111.947 29.018C111.374 28.791 110.878 28.4091 110.517 27.9167C110.156 27.3967 109.972 26.7769 109.994 26.1477C109.975 25.5366 110.158 24.9359 110.517 24.4361C110.882 23.9703 111.375 23.616 111.938 23.4145C112.571 23.1776 113.244 23.0605 113.922 23.0696H117.799V22.2248C117.821 21.8684 117.767 21.5114 117.642 21.1759C117.517 20.8405 117.324 20.5337 117.073 20.2745C116.776 20.023 116.431 19.8315 116.058 19.7108C115.685 19.5902 115.292 19.5428 114.9 19.5713C114.134 19.511 113.372 19.7305 112.76 20.1876C112.148 20.6447 111.73 21.3071 111.586 22.0479L110.324 21.6809C110.489 21.0789 110.769 20.5132 111.149 20.0136C111.546 19.5084 112.063 19.106 112.655 18.8416C113.363 18.5308 114.133 18.3797 114.909 18.3993C116.042 18.3281 117.158 18.6967 118.016 19.4253C118.394 19.7996 118.688 20.2479 118.877 20.7409C119.067 21.234 119.148 21.7607 119.116 22.2868V27.3418C119.116 27.784 119.323 27.9786 119.729 27.9786H120.753V29.0887H119.359C119.163 29.0994 118.967 29.07 118.783 29.0022C118.599 28.9345 118.431 28.8299 118.291 28.6951C118.155 28.5499 118.051 28.3797 117.984 28.1944C117.916 28.0091 117.887 27.8124 117.899 27.616V27.47H117.678C117.472 27.8025 117.227 28.1098 116.947 28.3855C116.618 28.7072 116.221 28.9547 115.784 29.1108C115.2 29.3145 114.582 29.4091 113.962 29.3894ZM114.052 28.2351C114.548 28.2552 115.043 28.1779 115.507 28.0078C115.972 27.8377 116.397 27.5782 116.758 27.2445C117.118 26.8714 117.397 26.4296 117.576 25.9465C117.755 25.4634 117.831 24.9493 117.799 24.4361V24.1796H113.94C113.277 24.1548 112.621 24.3225 112.055 24.6617C111.807 24.8213 111.607 25.0426 111.475 25.3028C111.342 25.5631 111.283 25.8531 111.302 26.1433C111.288 26.4444 111.352 26.7442 111.487 27.0148C111.623 27.2854 111.826 27.518 112.078 27.6912C112.66 28.0736 113.352 28.2642 114.052 28.2351Z" fill="#E6E7E8"/>
<path d="M126.393 29.3897C125.443 29.4424 124.498 29.2077 123.688 28.7174C123.094 28.3285 122.603 27.8052 122.259 27.1916H121.997V29.0889H120.73V14.1494H122.033V20.5312H122.299C122.503 20.152 122.772 19.8096 123.093 19.5184C123.485 19.1683 123.945 18.899 124.445 18.7268C125.079 18.5053 125.748 18.4004 126.42 18.4172C127.328 18.4048 128.223 18.6291 129.013 19.0673C129.788 19.5061 130.423 20.1497 130.843 20.9248C131.313 21.8038 131.545 22.7856 131.52 23.7774V24.0295C131.545 25.0223 131.309 26.0046 130.834 26.8821C130.406 27.6561 129.768 28.299 128.99 28.7395C128.2 29.1805 127.303 29.4051 126.393 29.3897ZM126.091 28.2354C126.633 28.2569 127.174 28.1673 127.678 27.9724C128.183 27.7774 128.64 27.4814 129.022 27.1032C129.411 26.6843 129.711 26.1936 129.904 25.6598C130.098 25.126 130.181 24.5598 130.149 23.9941V23.8172C130.18 23.254 130.096 22.6904 129.904 22.1591C129.711 21.6277 129.413 21.139 129.026 20.7214C128.232 19.9917 127.184 19.5856 126.096 19.5856C125.007 19.5856 123.959 19.9917 123.165 20.7214C122.774 21.137 122.473 21.625 122.278 22.1567C122.083 22.6883 121.998 23.2529 122.029 23.8172V23.9941C121.998 24.5584 122.083 25.1229 122.278 25.6546C122.473 26.1863 122.774 26.6743 123.165 27.0899C123.545 27.4691 124.002 27.7667 124.505 27.9638C125.009 28.161 125.549 28.2535 126.091 28.2354Z" fill="#E6E7E8"/>
<path d="M136.507 29.3898C135.347 29.4259 134.203 29.1176 133.224 28.5053C132.323 27.9082 131.759 26.9176 131.556 25.5377L132.846 25.3033C132.919 25.9437 133.163 26.5539 133.554 27.0724C133.892 27.4966 134.345 27.8185 134.861 28.0011C135.389 28.189 135.946 28.2833 136.507 28.2797C137.246 28.3151 137.979 28.1334 138.613 27.7579C138.861 27.6058 139.065 27.3929 139.204 27.1401C139.343 26.8873 139.413 26.6033 139.406 26.3161C139.428 26.0502 139.369 25.784 139.234 25.552C139.1 25.3201 138.897 25.1332 138.653 25.0159C138.02 24.732 137.349 24.537 136.66 24.4365L135.655 24.2684C135.034 24.1658 134.428 23.989 133.851 23.7421C133.351 23.5359 132.912 23.2088 132.575 22.7913C132.258 22.3585 132.099 21.8333 132.124 21.3009C132.11 20.8878 132.201 20.4778 132.39 20.1084C132.579 19.739 132.86 19.4222 133.206 19.1869C134.081 18.6777 135.081 18.4116 136.099 18.4171C137.116 18.4225 138.113 18.6993 138.982 19.2178C139.736 19.7818 140.234 20.6144 140.367 21.5353L139.122 21.7829C139.091 21.4323 138.983 21.0925 138.804 20.787C138.626 20.4815 138.382 20.2177 138.09 20.0139C137.474 19.6546 136.767 19.4765 136.052 19.5009C135.382 19.468 134.716 19.6213 134.131 19.9431C133.901 20.081 133.713 20.2768 133.586 20.5101C133.459 20.7434 133.398 21.0057 133.409 21.2699C133.393 21.5163 133.446 21.7624 133.561 21.982C133.676 22.2016 133.849 22.3865 134.063 22.5171C134.621 22.8231 135.233 23.0226 135.867 23.1053L136.868 23.2734C137.539 23.3733 138.198 23.5423 138.834 23.7775C139.368 23.967 139.844 24.2866 140.218 24.7063C140.574 25.1561 140.755 25.7161 140.727 26.2851C140.746 26.7265 140.653 27.1656 140.455 27.5625C140.258 27.9595 139.962 28.3018 139.596 28.5583C138.682 29.1499 137.6 29.4411 136.507 29.3898Z" fill="#E6E7E8"/>
</svg>
