<svg width="93" height="17" viewBox="0 0 93 17" fill="none" xmlns="http://www.w3.org/2000/svg">
<path d="M6.1181 16.2757C4.25443 16.2757 2.7725 15.7597 1.67233 14.7278C0.572161 13.6958 0.0190734 12.2128 0.0130615 10.2786V6.74056C0.0130615 4.80642 0.56615 3.32337 1.67233 2.29144C2.77852 1.2595 4.26044 0.74353 6.1181 0.74353C7.97878 0.74353 9.41411 1.24181 10.4241 2.23836C11.4341 3.23492 11.9391 4.6015 11.9391 6.33811V6.45752H9.36902V6.26292C9.40264 5.42046 9.1185 4.59539 8.57095 3.94549C8.0389 3.34401 7.21828 3.06097 6.1181 3.06097C5.64887 3.03764 5.17993 3.11232 4.74232 3.28005C4.30471 3.44778 3.90839 3.70474 3.57959 4.03394C2.92621 4.77471 2.59301 5.73615 2.65076 6.71403V10.3406C2.60153 11.3092 2.93411 12.2594 3.57959 12.9941C3.90654 13.3263 4.30232 13.5858 4.74023 13.7552C5.17815 13.9246 5.64801 13.9998 6.1181 13.9759C7.22278 13.9759 8.0389 13.6708 8.57095 13.0914C9.1185 12.4415 9.40264 11.6164 9.36902 10.774V10.4113H11.9391V10.7076C11.9391 12.4472 11.4341 13.8138 10.4241 14.8074C9.41411 15.801 7.97878 16.2904 6.1181 16.2757Z" fill="currentColor"/>
<path d="M12.431 15.975V1.03552H14.938V6.82027H15.3122C15.4499 6.54464 15.6414 6.29821 15.8758 6.09497C16.1776 5.82918 16.53 5.62474 16.9129 5.49349C17.436 5.32347 17.9852 5.24415 18.5361 5.2591C19.308 5.24387 20.0697 5.43334 20.7409 5.8075C21.3761 6.1692 21.8924 6.70173 22.2289 7.34214C22.6002 8.06228 22.783 8.86171 22.7609 9.66842V15.975H20.254V9.84974C20.2822 9.50552 20.2401 9.15924 20.1301 8.83118C20.0202 8.50312 19.8446 8.19987 19.6137 7.93919C19.3708 7.72213 19.0861 7.55479 18.7764 7.44695C18.4667 7.33912 18.1382 7.29296 17.8101 7.31118C17.4178 7.29219 17.0262 7.35982 16.6641 7.50908C16.302 7.65834 15.9787 7.88543 15.718 8.17358C15.1654 8.87756 14.8929 9.75477 14.9515 10.6414V15.975H12.431Z" fill="currentColor"/>
<path d="M27.1029 16.2759C26.3987 16.2851 25.7001 16.1511 25.0514 15.8823C24.4713 15.6394 23.9706 15.2447 23.604 14.7412C23.2335 14.198 23.0459 13.5546 23.0675 12.9014C23.051 12.2709 23.2389 11.6515 23.604 11.1324C23.9676 10.6255 24.4714 10.2311 25.0559 9.99579C25.7373 9.73838 26.463 9.61225 27.1931 9.62429H30.3088V8.99628C30.3196 8.74771 30.2789 8.49957 30.189 8.26692C30.0991 8.03428 29.9619 7.82199 29.7857 7.64297C29.5637 7.45213 29.3047 7.30716 29.0243 7.21674C28.7438 7.12631 28.4477 7.09228 28.1535 7.11668C27.5594 7.07271 26.9707 7.25307 26.5078 7.62085C26.1285 7.96267 25.8723 8.41572 25.7773 8.91225L23.4643 8.16483C23.6395 7.61008 23.9245 7.09462 24.3029 6.64788C24.7282 6.1748 25.2611 5.80663 25.8585 5.57319C26.603 5.2665 27.4047 5.11586 28.2121 5.13094C29.4133 5.06279 30.598 5.43123 31.5397 6.16582C31.9548 6.54766 32.2785 7.01503 32.4875 7.53427C32.6964 8.05352 32.7854 8.61173 32.7481 9.16876V13.3083C32.7481 13.7506 32.951 13.9496 33.3568 13.9496H34.2586V15.9751H32.4911C32.031 15.9957 31.5777 15.8615 31.206 15.5948C31.0419 15.473 30.9103 15.314 30.8223 15.1315C30.7344 14.949 30.6928 14.7483 30.701 14.5466V14.5024H30.3313C30.2103 14.762 30.059 15.0068 29.8804 15.2321C29.6132 15.55 29.2734 15.8015 28.8885 15.9663C28.3229 16.1943 27.7139 16.2999 27.1029 16.2759ZM27.5178 14.268C28.2659 14.3042 28.9993 14.0554 29.5648 13.5737C29.8268 13.3378 30.0329 13.0485 30.1684 12.726C30.304 12.4035 30.3657 12.0558 30.3493 11.7073V11.495H27.387C26.9259 11.4746 26.4695 11.5934 26.0794 11.8356C25.9144 11.9463 25.7812 12.0968 25.6928 12.2726C25.6043 12.4485 25.5635 12.6437 25.5744 12.8395C25.5704 13.0405 25.6159 13.2395 25.7069 13.4197C25.798 13.5998 25.9319 13.7558 26.0974 13.8744C26.5141 14.1548 27.0131 14.2931 27.5178 14.268Z" fill="currentColor"/>
<path d="M35.5159 4.08698C35.0831 4.09244 34.6648 3.93404 34.3481 3.64472C34.0358 3.33506 33.8607 2.91711 33.8607 2.48158C33.8607 2.04605 34.0358 1.62809 34.3481 1.31844C34.6648 1.02912 35.0831 0.870712 35.5159 0.876177C35.7342 0.869415 35.9518 0.905001 36.156 0.980894C36.3603 1.05679 36.5473 1.1715 36.7062 1.31844C37.0071 1.63387 37.1744 2.04965 37.1744 2.48158C37.1744 2.9135 37.0071 3.32928 36.7062 3.64472C36.5473 3.79166 36.3603 3.90637 36.156 3.98226C35.9518 4.05815 35.7342 4.09374 35.5159 4.08698ZM34.2714 15.9749V5.43145H36.7784V15.9749H34.2714Z" fill="currentColor"/>
<path d="M37.8929 15.975V5.43157H40.3548V6.89987H40.729C40.965 6.44754 41.3121 6.05996 41.739 5.77211C42.4157 5.36852 43.2036 5.18149 43.9935 5.23698C44.765 5.22235 45.5259 5.41506 46.1938 5.79422C46.8313 6.16326 47.3512 6.69929 47.6953 7.34213C48.0643 8.06308 48.247 8.86194 48.2273 9.66841V15.975H45.7204V9.84974C45.7477 9.50523 45.7048 9.15884 45.5941 8.8308C45.4834 8.50276 45.3071 8.19965 45.0756 7.93918C44.8332 7.72128 44.5487 7.55341 44.2389 7.44552C43.929 7.33764 43.6002 7.29195 43.2721 7.31117C42.8791 7.29215 42.4868 7.35975 42.124 7.50899C41.7611 7.65823 41.437 7.88532 41.1754 8.17358C40.6166 8.87542 40.3363 9.75223 40.3864 10.6414V15.975H37.8929Z" fill="currentColor"/>
<path d="M53.0111 15.975V1.03552H54.4044V14.7456H62.4302V15.9795L53.0111 15.975Z" fill="currentColor"/>
<path d="M66.1311 16.2756C65.4408 16.2847 64.7555 16.1584 64.1156 15.9041C63.5425 15.6771 63.0469 15.2952 62.6863 14.8028C62.3245 14.2828 62.1413 13.663 62.1633 13.0338C62.1437 12.4227 62.3272 11.822 62.6863 11.3223C63.0513 10.8564 63.5439 10.5021 64.1066 10.3006C64.7397 10.0637 65.4129 9.94664 66.0905 9.95567H69.9682V9.11096C69.9894 8.75447 69.936 8.39748 69.8111 8.06204C69.6863 7.7266 69.4927 7.4198 69.2422 7.16059C68.9448 6.90913 68.5998 6.71759 68.2269 6.59694C67.854 6.47628 67.4605 6.42887 67.069 6.4574C66.3025 6.39715 65.5404 6.61662 64.9288 7.07369C64.3171 7.53076 63.8991 8.19325 63.7549 8.93405L62.4924 8.56698C62.6576 7.96505 62.9375 7.39929 63.3175 6.89966C63.7147 6.39446 64.2317 5.99212 64.8235 5.72767C65.5319 5.41693 66.3023 5.26581 67.078 5.28542C68.2107 5.21425 69.3265 5.58277 70.1846 6.31146C70.5629 6.68567 70.8564 7.13396 71.0459 7.62703C71.2355 8.1201 71.3169 8.64685 71.2848 9.17287V14.2279C71.2848 14.6702 71.4922 14.8647 71.898 14.8647H72.9215V15.9748H71.5283C71.332 15.9855 71.1357 15.9561 70.9517 15.8883C70.7677 15.8206 70.6002 15.716 70.4597 15.5812C70.3243 15.436 70.2199 15.2658 70.1525 15.0805C70.0851 14.8952 70.0562 14.6985 70.0674 14.5021V14.3562H69.8464C69.6407 14.6886 69.3955 14.9959 69.116 15.2716C68.7864 15.5933 68.3895 15.8408 67.9527 15.9969C67.3686 16.2007 66.7507 16.2952 66.1311 16.2756ZM66.2213 15.1213C66.7168 15.1413 67.2114 15.0641 67.676 14.8939C68.1406 14.7238 68.5658 14.4643 68.9266 14.1306C69.2872 13.7575 69.5657 13.3157 69.7449 12.8326C69.9241 12.3495 70.0001 11.8354 69.9682 11.3223V11.0657H66.1086C65.4456 11.0409 64.79 11.2086 64.2238 11.5478C63.976 11.7075 63.7758 11.9287 63.6435 12.1889C63.5113 12.4492 63.4517 12.7392 63.4709 13.0294C63.4569 13.3306 63.5206 13.6303 63.6562 13.9009C63.7917 14.1715 63.9948 14.4041 64.2464 14.5773C64.8291 14.9598 65.5208 15.1503 66.2213 15.1213Z" fill="currentColor"/>
<path d="M78.563 16.2758C77.6123 16.3285 76.668 16.0938 75.8576 15.6035C75.2635 15.2146 74.7733 14.6913 74.4283 14.0777H74.1668V15.975H72.8998V1.03552H74.2029V7.41732H74.4689C74.6731 7.03812 74.9414 6.69567 75.2625 6.40455C75.6547 6.05436 76.1147 5.78514 76.6151 5.6129C77.2484 5.39143 77.9179 5.28648 78.59 5.30332C79.4977 5.29086 80.3924 5.51523 81.1826 5.95344C81.9582 6.39221 82.5925 7.03581 83.0132 7.81093C83.4823 8.6899 83.7151 9.6717 83.6896 10.6635V10.9156C83.7144 11.9084 83.4783 12.8907 83.0042 13.7682C82.5759 14.5423 81.9376 15.1851 81.1601 15.6257C80.3694 16.0666 79.4724 16.2912 78.563 16.2758ZM78.2609 15.1215C78.8028 15.143 79.3433 15.0534 79.848 14.8585C80.3526 14.6636 80.8102 14.3675 81.1916 13.9893C81.5805 13.5704 81.8805 13.0797 82.074 12.5459C82.2675 12.0121 82.3508 11.4459 82.3189 10.8802V10.7033C82.3496 10.1401 82.2662 9.57655 82.0734 9.04517C81.8807 8.51379 81.5826 8.02515 81.1962 7.60749C80.4016 6.87776 79.3539 6.47173 78.2654 6.47173C77.1769 6.47173 76.1291 6.87776 75.3346 7.60749C74.9443 8.02312 74.6427 8.51113 74.4476 9.04279C74.2524 9.57446 74.1677 10.139 74.1983 10.7033V10.8802C74.1677 11.4445 74.2524 12.0091 74.4476 12.5407C74.6427 13.0724 74.9443 13.5604 75.3346 13.976C75.715 14.3552 76.1715 14.6528 76.6752 14.85C77.1789 15.0471 77.7188 15.1396 78.2609 15.1215Z" fill="currentColor"/>
<path d="M88.6767 16.2759C87.5167 16.312 86.3726 16.0037 85.3942 15.3914C84.4925 14.7943 83.9289 13.8037 83.726 12.4238L85.0155 12.1894C85.0891 12.8298 85.3332 13.44 85.7234 13.9585C86.0613 14.3827 86.5146 14.7047 87.031 14.8872C87.5584 15.0751 88.1156 15.1694 88.6767 15.1658C89.4159 15.2012 90.149 15.0195 90.7824 14.644C91.0309 14.4919 91.2348 14.279 91.3739 14.0262C91.5131 13.7734 91.5827 13.4894 91.5759 13.2022C91.5982 12.9363 91.5383 12.6701 91.404 12.4381C91.2697 12.2062 91.0672 12.0193 90.823 11.902C90.1896 11.6181 89.5188 11.4231 88.83 11.3226L87.8245 11.1545C87.2037 11.0519 86.5981 10.8751 86.021 10.6283C85.5206 10.422 85.0817 10.0949 84.745 9.6774C84.4278 9.24459 84.2689 8.71943 84.2941 8.18699C84.2795 7.77392 84.371 7.36389 84.5601 6.99452C84.7491 6.62516 85.0298 6.30828 85.3762 6.07299C86.2513 5.56383 87.2511 5.29773 88.2685 5.30318C89.286 5.30864 90.2828 5.58544 91.1521 6.10395C91.9061 6.66793 92.4034 7.50047 92.5363 8.42139L91.2919 8.66905C91.2608 8.31839 91.1523 7.97856 90.9741 7.6731C90.7958 7.36764 90.5519 7.10385 90.2593 6.90001C89.6443 6.54066 88.9368 6.36256 88.2213 6.38699C87.5514 6.35407 86.8856 6.50738 86.3005 6.82925C86.0705 6.96714 85.8823 7.16289 85.7555 7.3962C85.6286 7.6295 85.5677 7.89185 85.5791 8.15603C85.5631 8.40245 85.6153 8.64855 85.7305 8.86815C85.8456 9.08775 86.0192 9.27265 86.2329 9.4032C86.7908 9.70918 87.4028 9.90876 88.0365 9.9914L89.0374 10.1595C89.7089 10.2594 90.3679 10.4284 91.0033 10.6636C91.5375 10.8531 92.0139 11.1727 92.3875 11.5924C92.7439 12.0422 92.9246 12.6022 92.897 13.1712C92.9162 13.6126 92.8228 14.0517 92.6251 14.4486C92.4275 14.8456 92.132 15.1879 91.7653 15.4445C90.8518 16.036 89.7701 16.3272 88.6767 16.2759Z" fill="currentColor"/>
</svg>
