<svg width="141" height="42" viewBox="0 0 141 42" fill="none" xmlns="http://www.w3.org/2000/svg">
<path fill-rule="evenodd" clip-rule="evenodd" d="M41.9778 20.7539C41.9778 32.1019 32.5808 41.3013 20.9889 41.3013C9.39706 41.3013 0 32.1019 0 20.7539C0 9.40591 9.39706 0.206543 20.9889 0.206543C32.5808 0.206543 41.9778 9.40591 41.9778 20.7539ZM10.5418 29.1878C11.4946 29.4551 12.4817 29.5861 13.4726 29.5769C15.0119 29.6433 16.5478 29.3855 17.977 28.8207C20.4298 27.7548 21.4624 25.7381 21.8096 23.2703C21.8453 23.0144 21.6997 23.0392 21.5749 23.0604C21.5423 23.066 21.5111 23.0713 21.4849 23.0713H17.6839C17.3638 23.0669 17.2511 23.1553 17.1699 23.4649C16.7235 25.1588 15.6234 25.8929 13.8198 25.6762C13.6128 25.6761 13.408 25.6342 13.2182 25.5532C13.0283 25.4722 12.8575 25.3538 12.7163 25.2053C12.5751 25.0569 12.4665 24.8815 12.3972 24.6901C12.328 24.4988 12.2996 24.2955 12.3138 24.0929C12.3101 23.883 12.3222 23.6731 12.3499 23.4649C12.4162 23.073 12.4817 22.6825 12.5469 22.2932L12.547 22.2931L12.547 22.293C12.819 20.6704 13.0878 19.0676 13.4005 17.459C13.7477 15.6988 14.8974 14.8674 16.701 15.0001C17.6556 15.0627 18.6131 14.9316 19.5138 14.6151C20.4145 14.2986 21.239 13.8033 21.9358 13.1603C22.1658 12.9657 22.1252 12.8507 21.9358 12.665C21.4655 12.1958 20.896 11.8335 20.2675 11.6035C18.6798 11.0979 16.9927 10.9676 15.3438 11.2232C12.0388 11.5858 9.77982 13.4787 9.03135 16.6453C8.75328 17.8213 8.54263 19.0226 8.33364 20.2144L8.33364 20.2144L8.33363 20.2145C8.22747 20.8199 8.12174 21.4228 8.00783 22.0187C7.73749 23.1698 7.6148 24.3494 7.64261 25.5303C7.76435 27.4187 8.70671 28.6172 10.5418 29.1878ZM24.3972 18.4897C22.9002 19.9005 21.0336 20.1394 19.1308 20.2986C18.9713 20.3118 18.8107 20.3184 18.6506 20.325C18.4894 20.3317 18.3288 20.3383 18.1704 20.3516C17.8548 20.3782 17.7466 20.3516 17.8142 19.989C18.0442 18.8037 18.2651 17.6096 18.4545 16.4155C18.497 16.1612 18.6393 16.1577 18.8156 16.1535H18.8156C18.8447 16.1528 18.8747 16.1521 18.9054 16.1502C20.2663 16.129 21.5867 15.6931 22.6838 14.903C23.6809 14.1475 24.4098 13.1029 24.7669 11.9178C24.7743 11.8568 24.7946 11.798 24.8265 11.7451C24.8584 11.6922 24.9011 11.6464 24.952 11.6106C25.0029 11.5748 25.0608 11.5498 25.1221 11.5372C25.1834 11.5246 25.2467 11.5247 25.308 11.5374H29.7087C30.0874 11.5374 30.1235 11.648 30.0649 11.9797C29.0369 17.6907 28.0163 23.3988 27.0033 29.1039C26.9447 29.4312 26.832 29.5152 26.5074 29.5108H22.7515C22.4043 29.5108 22.3006 29.4533 22.3862 29.0686C22.9365 26.2466 23.4717 23.4188 24.0066 20.5923C24.1247 19.968 24.2429 19.3438 24.3611 18.7197C24.3747 18.6711 24.3837 18.6003 24.3972 18.4897ZM29.0144 29.4973H31.3004C32.0669 29.4973 32.8289 29.4973 33.6134 29.5061C33.9651 29.5061 34.0824 29.3867 34.132 29.0639C34.3303 27.796 34.5453 26.5297 34.7767 25.2649C34.8308 24.9508 34.7091 24.9243 34.4476 24.9243H29.8214C29.4968 24.9243 29.4156 25.0393 29.3706 25.3002C29.275 25.8159 29.1846 26.3315 29.0944 26.8468C28.9632 27.5956 28.8321 28.3438 28.6852 29.0904C28.6221 29.4088 28.6672 29.4973 29.0144 29.4973Z" fill="#04FFA4"/>
<path d="M53.9488 29.1435C52.0851 29.1435 50.6032 28.6275 49.503 27.5956C48.4028 26.5636 47.8498 25.0806 47.8438 23.1464V19.6084C47.8438 17.6742 48.3968 16.1912 49.503 15.1592C50.6092 14.1273 52.0911 13.6113 53.9488 13.6113C55.8095 13.6113 57.2448 14.1096 58.2548 15.1062C59.2648 16.1027 59.7698 17.4693 59.7698 19.2059V19.3253H57.1997V19.1307C57.2333 18.2883 56.9492 17.4632 56.4016 16.8133C55.8696 16.2118 55.049 15.9288 53.9488 15.9288C53.4796 15.9054 53.0106 15.9801 52.573 16.1478C52.1354 16.3156 51.7391 16.5725 51.4103 16.9017C50.7569 17.6425 50.4237 18.6039 50.4815 19.5818V23.2083C50.4322 24.177 50.7648 25.1272 51.4103 25.8619C51.7372 26.1941 52.133 26.4536 52.5709 26.623C53.0088 26.7924 53.4787 26.8676 53.9488 26.8437C55.0535 26.8437 55.8696 26.5386 56.4016 25.9592C56.9492 25.3093 57.2333 24.4842 57.1997 23.6418V23.2791H59.7698V23.5754C59.7698 25.315 59.2648 26.6816 58.2548 27.6752C57.2448 28.6688 55.8095 29.1582 53.9488 29.1435Z" fill="#E6E7E8"/>
<path d="M60.2617 28.8428V13.9033H62.7687V19.6881H63.1429C63.2806 19.4124 63.472 19.166 63.7065 18.9628C64.0082 18.697 64.3607 18.4925 64.7436 18.3613C65.2666 18.1913 65.8159 18.112 66.3668 18.1269C67.1386 18.1117 67.9004 18.3011 68.5716 18.6753C69.2068 19.037 69.7231 19.5695 70.0596 20.2099C70.4309 20.9301 70.6137 21.7295 70.5916 22.5362V28.8428H68.0847V22.7175C68.1129 22.3733 68.0707 22.027 67.9608 21.699C67.8509 21.3709 67.6753 21.0677 67.4444 20.807C67.2014 20.5899 66.9168 20.4226 66.6071 20.3147C66.2974 20.2069 65.9689 20.1608 65.6408 20.179C65.2485 20.16 64.8569 20.2276 64.4948 20.3769C64.1327 20.5261 63.8094 20.7532 63.5487 21.0414C62.9961 21.7454 62.7236 22.6226 62.7822 23.5092V28.8428H60.2617Z" fill="#E6E7E8"/>
<path d="M74.9334 29.1437C74.2291 29.1529 73.5306 29.0189 72.8818 28.75C72.3018 28.5072 71.801 28.1125 71.4345 27.609C71.064 27.0658 70.8763 26.4224 70.8979 25.7692C70.8815 25.1387 71.0693 24.5193 71.4345 24.0002C71.7981 23.4933 72.3018 23.0989 72.8863 22.8636C73.5678 22.6062 74.2934 22.48 75.0236 22.4921H78.1392V21.8641C78.1501 21.6155 78.1093 21.3674 78.0194 21.1347C77.9295 20.9021 77.7923 20.6898 77.6162 20.5108C77.3941 20.3199 77.1352 20.175 76.8547 20.0845C76.5743 19.9941 76.2781 19.9601 75.9839 19.9845C75.3899 19.9405 74.8012 20.1209 74.3382 20.4887C73.959 20.8305 73.7027 21.2835 73.6078 21.78L71.2947 21.0326C71.47 20.4779 71.755 19.9624 72.1334 19.5157C72.5586 19.0426 73.0915 18.6744 73.6889 18.441C74.4335 18.1343 75.2352 17.9837 76.0426 17.9987C77.2438 17.9306 78.4284 18.299 79.3701 19.0336C79.7853 19.4155 80.109 19.8828 80.3179 20.4021C80.5269 20.9213 80.6159 21.4795 80.5785 22.0366V26.1761C80.5785 26.6184 80.7814 26.8174 81.1872 26.8174H82.089V28.8429H80.3215C79.8615 28.8635 79.4081 28.7293 79.0365 28.4626C78.8724 28.3408 78.7407 28.1818 78.6528 27.9993C78.5649 27.8168 78.5232 27.6161 78.5315 27.4144V27.3702H78.1617C78.0408 27.6298 77.8895 27.8746 77.7109 28.0999C77.4437 28.4178 77.1038 28.6693 76.7189 28.8341C76.1534 29.0621 75.5443 29.1677 74.9334 29.1437ZM75.3482 27.1358C76.0963 27.172 76.8297 26.9232 77.3952 26.4415C77.6573 26.2056 77.8633 25.9163 77.9989 25.5938C78.1344 25.2713 78.1962 24.9236 78.1798 24.5751V24.3628H75.2174C74.7563 24.3424 74.2999 24.4612 73.9099 24.7034C73.7448 24.8141 73.6117 24.9646 73.5232 25.1404C73.4348 25.3163 73.394 25.5115 73.4049 25.7073C73.4009 25.9083 73.4463 26.1073 73.5374 26.2875C73.6284 26.4676 73.7624 26.6236 73.9279 26.7422C74.3445 27.0226 74.8436 27.1609 75.3482 27.1358Z" fill="#E6E7E8"/>
<path d="M83.3466 16.9548C82.9138 16.9602 82.4955 16.8018 82.1788 16.5125C81.8665 16.2029 81.6914 15.7849 81.6914 15.3494C81.6914 14.9138 81.8665 14.4959 82.1788 14.1862C82.4955 13.8969 82.9138 13.7385 83.3466 13.744C83.5649 13.7372 83.7824 13.7728 83.9867 13.8487C84.191 13.9246 84.378 14.0393 84.5369 14.1862C84.8377 14.5017 85.0051 14.9175 85.0051 15.3494C85.0051 15.7813 84.8377 16.1971 84.5369 16.5125C84.378 16.6595 84.191 16.7742 83.9867 16.8501C83.7824 16.926 83.5649 16.9615 83.3466 16.9548ZM82.1021 28.8427V18.2992H84.6091V28.8427H82.1021Z" fill="#E6E7E8"/>
<path d="M85.7236 28.8428V18.2994H88.1855V19.7677H88.5597C88.7957 19.3153 89.1428 18.9278 89.5697 18.6399C90.2464 18.2363 91.0343 18.0493 91.8242 18.1048C92.5957 18.0902 93.3566 18.2829 94.0245 18.662C94.662 19.0311 95.1819 19.5671 95.526 20.2099C95.895 20.9309 96.0777 21.7297 96.058 22.5362V28.8428H93.5511V22.7175C93.5784 22.373 93.5355 22.0266 93.4248 21.6986C93.314 21.3706 93.1378 21.0674 92.9063 20.807C92.6639 20.5891 92.3794 20.4212 92.0695 20.3133C91.7597 20.2054 91.4309 20.1597 91.1027 20.179C90.7098 20.16 90.3175 20.2275 89.9546 20.3768C89.5918 20.526 89.2677 20.7531 89.0061 21.0414C88.4473 21.7432 88.167 22.62 88.2171 23.5092V28.8428H85.7236Z" fill="#E6E7E8"/>
<path d="M100.842 28.8428V13.9033H102.235V27.6134H110.261V28.8473L100.842 28.8428Z" fill="#E6E7E8"/>
<path d="M113.962 29.1434C113.271 29.1525 112.586 29.0262 111.946 28.7719C111.373 28.5449 110.878 28.163 110.517 27.6706C110.155 27.1506 109.972 26.5308 109.994 25.9016C109.974 25.2905 110.158 24.6898 110.517 24.1901C110.882 23.7242 111.375 23.3699 111.937 23.1684C112.57 22.9315 113.244 22.8144 113.921 22.8235H117.799V21.9788C117.82 21.6223 117.767 21.2653 117.642 20.9298C117.517 20.5944 117.323 20.2876 117.073 20.0284C116.776 19.7769 116.431 19.5854 116.058 19.4647C115.685 19.3441 115.291 19.2967 114.9 19.3252C114.133 19.265 113.371 19.4844 112.759 19.9415C112.148 20.3986 111.73 21.061 111.586 21.8019L110.323 21.4348C110.488 20.8328 110.768 20.2671 111.148 19.7675C111.545 19.2623 112.062 18.8599 112.654 18.5955C113.363 18.2847 114.133 18.1336 114.909 18.1532C116.041 18.082 117.157 18.4506 118.015 19.1793C118.394 19.5535 118.687 20.0018 118.877 20.4948C119.066 20.9879 119.148 21.5146 119.115 22.0407V27.0957C119.115 27.538 119.323 27.7325 119.729 27.7325H120.752V28.8426H119.359C119.163 28.8533 118.966 28.8239 118.782 28.7561C118.598 28.6884 118.431 28.5838 118.29 28.449C118.155 28.3038 118.051 28.1336 117.983 27.9483C117.916 27.763 117.887 27.5663 117.898 27.3699V27.2239H117.677C117.471 27.5564 117.226 27.8637 116.947 28.1394C116.617 28.4611 116.22 28.7086 115.783 28.8647C115.199 29.0685 114.581 29.163 113.962 29.1434ZM114.052 27.9891C114.547 28.0091 115.042 27.9319 115.507 27.7617C115.971 27.5916 116.396 27.3321 116.757 26.9984C117.118 26.6253 117.396 26.1835 117.576 25.7004C117.755 25.2173 117.831 24.7032 117.799 24.1901V23.9335H113.939C113.276 23.9087 112.621 24.0764 112.055 24.4156C111.807 24.5752 111.606 24.7965 111.474 25.0567C111.342 25.317 111.282 25.607 111.302 25.8972C111.288 26.1984 111.351 26.4981 111.487 26.7687C111.622 27.0393 111.825 27.2719 112.077 27.4451C112.66 27.8275 113.351 28.0181 114.052 27.9891Z" fill="#E6E7E8"/>
<path d="M126.394 29.1436C125.443 29.1963 124.499 28.9616 123.688 28.4713C123.094 28.0824 122.604 27.5591 122.259 26.9455H121.997V28.8428H120.73V13.9033H122.034V20.2851H122.3C122.504 19.9059 122.772 19.5635 123.093 19.2723C123.485 18.9222 123.945 18.6529 124.446 18.4807C125.079 18.2592 125.749 18.1543 126.421 18.1711C127.328 18.1587 128.223 18.383 129.013 18.8212C129.789 19.26 130.423 19.9036 130.844 20.6787C131.313 21.5577 131.546 22.5395 131.52 23.5313V23.7834C131.545 24.7762 131.309 25.7585 130.835 26.636C130.407 27.4101 129.768 28.0529 128.991 28.4934C128.2 28.9344 127.303 29.159 126.394 29.1436ZM126.092 27.9893C126.633 28.0108 127.174 27.9212 127.679 27.7263C128.183 27.5313 128.641 27.2353 129.022 26.8571C129.411 26.4382 129.711 25.9475 129.905 25.4137C130.098 24.8799 130.181 24.3137 130.15 23.748V23.5711C130.18 23.0079 130.097 22.4443 129.904 21.913C129.711 21.3816 129.413 20.8929 129.027 20.4753C128.232 19.7456 127.185 19.3395 126.096 19.3395C125.008 19.3395 123.96 19.7456 123.165 20.4753C122.775 20.8909 122.473 21.3789 122.278 21.9106C122.083 22.4423 121.998 23.0068 122.029 23.5711V23.748C121.998 24.3123 122.083 24.8769 122.278 25.4085C122.473 25.9402 122.775 26.4282 123.165 26.8438C123.546 27.223 124.002 27.5206 124.506 27.7178C125.01 27.9149 125.55 28.0074 126.092 27.9893Z" fill="#E6E7E8"/>
<path d="M136.507 29.1437C135.347 29.1798 134.203 28.8715 133.225 28.2592C132.323 27.6621 131.76 26.6715 131.557 25.2916L132.846 25.0572C132.92 25.6976 133.164 26.3078 133.554 26.8263C133.892 27.2505 134.345 27.5725 134.862 27.755C135.389 27.9429 135.946 28.0372 136.507 28.0336C137.247 28.069 137.98 27.8873 138.613 27.5118C138.862 27.3597 139.065 27.1468 139.205 26.894C139.344 26.6412 139.413 26.3572 139.407 26.07C139.429 25.8041 139.369 25.5379 139.235 25.3059C139.1 25.074 138.898 24.8871 138.654 24.7698C138.02 24.4859 137.349 24.2909 136.661 24.1904L135.655 24.0223C135.034 23.9197 134.429 23.7429 133.852 23.4961C133.351 23.2898 132.912 22.9627 132.576 22.5452C132.259 22.1124 132.1 21.5872 132.125 21.0548C132.11 20.6417 132.202 20.2317 132.391 19.8623C132.58 19.493 132.86 19.1761 133.207 18.9408C134.082 18.4316 135.082 18.1655 136.099 18.171C137.117 18.1764 138.113 18.4532 138.983 18.9717C139.737 19.5357 140.234 20.3683 140.367 21.2892L139.123 21.5368C139.091 21.1862 138.983 20.8464 138.805 20.5409C138.626 20.2354 138.383 19.9716 138.09 19.7678C137.475 19.4085 136.767 19.2304 136.052 19.2548C135.382 19.2219 134.716 19.3752 134.131 19.697C133.901 19.8349 133.713 20.0307 133.586 20.264C133.459 20.4973 133.398 20.7597 133.41 21.0238C133.394 21.2703 133.446 21.5163 133.561 21.7359C133.676 21.9555 133.85 22.1404 134.064 22.271C134.622 22.577 135.233 22.7766 135.867 22.8592L136.868 23.0273C137.54 23.1272 138.199 23.2962 138.834 23.5314C139.368 23.7209 139.845 24.0405 140.218 24.4602C140.575 24.91 140.755 25.47 140.728 26.039C140.747 26.4804 140.653 26.9195 140.456 27.3164C140.258 27.7134 139.963 28.0557 139.596 28.3123C138.683 28.9038 137.601 29.195 136.507 29.1437Z" fill="#E6E7E8"/>
</svg>
