<svg width="48" height="49" viewBox="0 0 48 49" fill="none" xmlns="http://www.w3.org/2000/svg">
<path d="M36 20.7539V16.7539H40V20.7539H36ZM36 24.7539V20.7539H32V24.7539H36ZM36 16.7539V12.7539H32V16.7539H36ZM32 6.43391V8.75391H36C34.74 7.83391 33.42 7.05391 32 6.43391ZM36 8.75391V12.7539H40C38.84 11.2539 37.5 9.91391 36 8.75391ZM40 12.7539V16.7539H42.32C41.7 15.3339 40.92 14.0139 40 12.7539ZM44 24.7539C44 23.3939 43.86 22.0539 43.6 20.7539H40V24.7539H44ZM32 12.7539V8.75391H28V12.7539H32ZM32 32.7539H36V28.7539H32V32.7539ZM36 36.7539H40V32.7539H36V36.7539ZM32 40.7539H36V36.7539H32V40.7539ZM28 44.3539C29.4 44.0739 30.72 43.6339 32 43.0739V40.7539H28V44.3539ZM36 28.7539H40V24.7539H36V28.7539ZM32 16.7539H28V20.7539H32V16.7539ZM40 32.7539H42.32C42.88 31.4739 43.32 30.1539 43.6 28.7539H40V32.7539ZM32 24.7539H28V28.7539H32V24.7539ZM24 36.7539V32.7539H28V28.7539H24V24.7539H28V20.7539H24V16.7539H28V12.7539H24V8.75391H28V5.15391C26.7 4.89391 25.38 4.75391 24 4.75391C13 4.75391 4 13.7539 4 24.7539C4 35.7539 13 44.7539 24 44.7539V40.7539H28V36.7539H24ZM28 36.7539H32V32.7539H28V36.7539Z" fill="#00CC81"/>
</svg>
