<svg width="49" height="49" viewBox="0 0 49 49" fill="none" xmlns="http://www.w3.org/2000/svg">
<path d="M10.272 6.75391C8.05197 6.75391 6.27197 8.53391 6.27197 10.7539V38.7539C6.27197 39.8148 6.6934 40.8322 7.44355 41.5823C8.19369 42.3325 9.21111 42.7539 10.272 42.7539H38.272C39.3328 42.7539 40.3503 42.3325 41.1004 41.5823C41.8505 40.8322 42.272 39.8148 42.272 38.7539V10.7539C42.272 9.69304 41.8505 8.67562 41.1004 7.92548C40.3503 7.17533 39.3328 6.75391 38.272 6.75391H10.272ZM27.792 12.7539H31.052L33.272 17.9539L35.452 12.7539H38.752C38.752 12.7539 35.272 21.8939 33.192 25.3939C32.432 26.5339 30.972 27.2939 29.272 27.2539V24.2539C30.192 24.2739 30.772 23.7539 31.272 23.0139C31.492 22.7539 31.632 22.3539 31.752 22.0339L27.792 12.7539ZM13.092 19.9339L18.692 25.5139L24.272 19.9339L27.092 22.7539L21.512 28.3339L27.092 33.9339L24.272 36.7539L18.692 31.1739L13.092 36.7539L10.272 33.9339L15.852 28.3339L10.272 22.7539L13.092 19.9339Z" fill="#00CC81"/>
</svg>
