<svg width="36" height="36" viewBox="0 0 36 36" fill="none" xmlns="http://www.w3.org/2000/svg">
<g clip-path="url(#clip0)">
<path d="M36.0001 18.1103C36.0001 8.1068 27.9406 -0.00219727 18.0001 -0.00219727C8.05511 5.27345e-05 -0.00439453 8.1068 -0.00439453 18.1126C-0.00439453 27.1508 6.57911 34.6433 15.1831 36.0023V23.3461H10.6156V18.1126H15.1876V14.1188C15.1876 9.58055 17.8764 7.07405 21.9871 7.07405C23.9581 7.07405 26.0169 7.4273 26.0169 7.4273V11.8823H23.7466C21.5124 11.8823 20.8149 13.2796 20.8149 14.7128V18.1103H25.8054L25.0089 23.3438H20.8126V36.0001C29.4166 34.6411 36.0001 27.1486 36.0001 18.1103Z" fill="#33FF99"/>
</g>
<defs>
<clipPath id="clip0">
<rect width="36" height="36" fill="white"/>
</clipPath>
</defs>
</svg>
