<svg viewBox="0 0 134 134" fill="none" xmlns="http://www.w3.org/2000/svg">
<g filter="url(#filter0_b)">
<path d="M2 23.6667C2 11.7005 11.7005 2 23.6667 2H110.333C122.299 2 132 11.7005 132 23.6667V110.333C132 122.299 122.299 132 110.333 132H23.6667C11.7005 132 2 122.299 2 110.333V23.6667Z" fill="#C4C4C4" fill-opacity="0.1"/>
<path d="M23.6667 1.25C11.2863 1.25 1.25 11.2863 1.25 23.6667V110.333C1.25 122.714 11.2863 132.75 23.6667 132.75H110.333C122.714 132.75 132.75 122.714 132.75 110.333V23.6667C132.75 11.2863 122.714 1.25 110.333 1.25H23.6667Z" stroke="url(#paint0_linear)" stroke-opacity="0.6" stroke-width="1.5"/>
</g>
<path d="M57.9722 35.4028L67 26.375M48.9444 85.0556L85.0556 48.9444M67 107.625L76.0278 98.5972M87.3125 98.5972C90.3054 98.5972 93.1757 97.4083 95.292 95.292C97.4083 93.1757 98.5972 90.3054 98.5972 87.3125C98.5972 84.3196 97.4083 81.4493 95.292 79.333C93.1757 77.2167 90.3054 76.0278 87.3125 76.0278C84.3196 76.0278 81.4493 77.2167 79.333 79.333C77.2167 81.4493 76.0278 84.3196 76.0278 87.3125C76.0278 90.3054 77.2167 93.1757 79.333 95.292C81.4493 97.4083 84.3196 98.5972 87.3125 98.5972ZM46.6875 57.9722C49.6804 57.9722 52.5507 56.7833 54.667 54.667C56.7833 52.5507 57.9722 49.6804 57.9722 46.6875C57.9722 43.6946 56.7833 40.8243 54.667 38.708C52.5507 36.5917 49.6804 35.4028 46.6875 35.4028C43.6946 35.4028 40.8243 36.5917 38.708 38.708C36.5917 40.8243 35.4028 43.6946 35.4028 46.6875C35.4028 49.6804 36.5917 52.5507 38.708 54.667C40.8243 56.7833 43.6946 57.9722 46.6875 57.9722ZM37.6597 107.625C40.6526 107.625 43.5229 106.436 45.6392 104.32C47.7555 102.203 48.9444 99.3332 48.9444 96.3403C48.9444 93.3474 47.7555 90.4771 45.6392 88.3608C43.5229 86.2445 40.6526 85.0556 37.6597 85.0556C34.6668 85.0556 31.7965 86.2445 29.6802 88.3608C27.5639 90.4771 26.375 93.3474 26.375 96.3403C26.375 99.3332 27.5639 102.203 29.6802 104.32C31.7965 106.436 34.6668 107.625 37.6597 107.625ZM96.3403 48.9444C99.3332 48.9444 102.203 47.7555 104.32 45.6392C106.436 43.5229 107.625 40.6526 107.625 37.6597C107.625 34.6668 106.436 31.7965 104.32 29.6802C102.203 27.5639 99.3332 26.375 96.3403 26.375C93.3474 26.375 90.4771 27.5639 88.3608 29.6802C86.2445 31.7965 85.0556 34.6668 85.0556 37.6597C85.0556 40.6526 86.2445 43.5229 88.3608 45.6392C90.4771 47.7555 93.3474 48.9444 96.3403 48.9444Z" stroke="#33FF99" stroke-width="4.0625" stroke-linecap="round" stroke-linejoin="round"/>
<defs>
<filter id="filter0_b" x="-21.1667" y="-21.1667" width="176.333" height="176.333" filterUnits="userSpaceOnUse" color-interpolation-filters="sRGB">
<feFlood flood-opacity="0" result="BackgroundImageFix"/>
<feGaussianBlur in="BackgroundImage" stdDeviation="10.8333"/>
<feComposite in2="SourceAlpha" operator="in" result="effect1_backgroundBlur"/>
<feBlend mode="normal" in="SourceGraphic" in2="effect1_backgroundBlur" result="shape"/>
</filter>
<linearGradient id="paint0_linear" x1="139.583" y1="132" x2="2" y2="-39.1667" gradientUnits="userSpaceOnUse">
<stop stop-color="#04FFA4"/>
<stop offset="1" stop-opacity="0"/>
</linearGradient>
</defs>
</svg>
