<svg width="58" height="56" viewBox="0 0 58 56" fill="none" xmlns="http://www.w3.org/2000/svg">
<path fill-rule="evenodd" clip-rule="evenodd" d="M57.2034 28C57.2034 43.464 44.398 56 28.6017 56C12.8054 56 0 43.464 0 28C0 12.536 12.8054 0 28.6017 0C44.398 0 57.2034 12.536 57.2034 28ZM14.3654 39.4929C15.6637 39.8572 17.0089 40.0358 18.3592 40.0232C20.4568 40.1137 22.5498 39.7623 24.4974 38.9927C27.8399 37.5402 29.2469 34.7921 29.72 31.4292C29.7687 31.0804 29.5702 31.1142 29.4002 31.1432C29.3557 31.1507 29.3133 31.158 29.2776 31.158H24.098C23.6617 31.152 23.5081 31.2725 23.3975 31.6944C22.7892 34.0026 21.29 35.003 18.8323 34.7077C18.5502 34.7075 18.2711 34.6505 18.0125 34.5401C17.7538 34.4297 17.521 34.2684 17.3286 34.066C17.1361 33.8637 16.9881 33.6247 16.8938 33.364C16.7994 33.1032 16.7607 32.8262 16.7801 32.5502C16.775 32.2641 16.7915 31.9781 16.8293 31.6944C16.9196 31.1606 17.0087 30.629 17.0976 30.0988L17.0977 30.0983L17.0978 30.0978L17.0978 30.0975L17.0978 30.0975C17.4685 27.8864 17.8347 25.7022 18.2609 23.5101C18.734 21.1115 20.3008 19.9785 22.7585 20.1593C24.0594 20.2446 25.3642 20.066 26.5916 19.6347C27.8189 19.2033 28.9425 18.5284 29.892 17.6522C30.2054 17.387 30.1501 17.2303 29.892 16.9772C29.2511 16.3379 28.4751 15.8442 27.6187 15.5308C25.455 14.8418 23.156 14.6642 20.9091 15.0125C16.4053 15.5067 13.327 18.0861 12.3071 22.4012C11.9281 24.0038 11.6411 25.6408 11.3563 27.2648C11.2116 28.0899 11.0675 28.9115 10.9123 29.7236C10.5439 31.2921 10.3767 32.8997 10.4146 34.5088C10.5805 37.0822 11.8647 38.7155 14.3654 39.4929ZM33.2468 24.9144C31.2069 26.8369 28.6632 27.1623 26.0703 27.3793C25.853 27.3973 25.6341 27.4063 25.416 27.4153H25.4159H25.4159C25.1962 27.4244 24.9773 27.4335 24.7616 27.4516C24.3315 27.4878 24.184 27.4516 24.2762 26.9574C24.5895 25.3423 24.8906 23.7151 25.1487 22.0878C25.2067 21.7413 25.4005 21.7366 25.6408 21.7308C25.6804 21.7298 25.7213 21.7288 25.7631 21.7262C27.6176 21.6973 29.417 21.1034 30.912 20.0267C32.2707 18.9972 33.264 17.5737 33.7507 15.9587C33.7608 15.8756 33.7884 15.7954 33.8318 15.7234C33.8753 15.6513 33.9335 15.5889 34.0029 15.5402C34.0722 15.4914 34.1512 15.4573 34.2347 15.4402C34.3182 15.423 34.4045 15.4231 34.488 15.4404H40.4848C41.0009 15.4404 41.0501 15.5911 40.9702 16.0431C39.5693 23.8255 38.1787 31.604 36.7982 39.3784C36.7184 39.8244 36.5648 39.9389 36.1224 39.9329H31.0042C30.5311 39.9329 30.3897 39.8545 30.5065 39.3302C31.2564 35.4848 31.9856 31.6312 32.7145 27.7796L32.7148 27.7784C32.8757 26.928 33.0366 26.0778 33.1977 25.2278C33.2161 25.1615 33.2284 25.065 33.2468 24.9144ZM39.5386 39.9148H42.6537C43.6983 39.9148 44.7367 39.9148 45.8058 39.9268C46.285 39.9268 46.4448 39.7641 46.5124 39.3242C46.7827 37.5965 47.0756 35.8709 47.391 34.1473C47.4647 33.7194 47.2988 33.6832 46.9425 33.6832H40.6384C40.196 33.6832 40.0854 33.8399 40.024 34.1955C39.8937 34.8981 39.7706 35.6008 39.6476 36.303C39.4688 37.3234 39.2902 38.3429 39.0901 39.3603C39.004 39.7943 39.0655 39.9148 39.5386 39.9148Z" fill="#04FFA4"/>
</svg>
