<svg width="42" height="43" viewBox="0 0 42 43" fill="none" xmlns="http://www.w3.org/2000/svg">
<path fill-rule="evenodd" clip-rule="evenodd" d="M41.9909 21.5133C41.9909 32.8613 32.5938 42.0607 21.002 42.0607C9.41012 42.0607 0.0130615 32.8613 0.0130615 21.5133C0.0130615 10.1653 9.41012 0.965942 21.002 0.965942C32.5938 0.965942 41.9909 10.1653 41.9909 21.5133ZM10.5548 29.947C11.5076 30.2143 12.4947 30.3454 13.4856 30.3362C15.0249 30.4026 16.5608 30.1447 17.99 29.5799C20.4428 28.5141 21.4754 26.4974 21.8225 24.0296C21.8583 23.7736 21.7126 23.7984 21.5878 23.8197C21.5552 23.8252 21.5241 23.8306 21.4979 23.8306H17.6969C17.3768 23.8261 17.264 23.9146 17.1829 24.2242C16.7365 25.918 15.6363 26.6522 13.8328 26.4355C13.6258 26.4353 13.421 26.3935 13.2311 26.3125C13.0413 26.2315 12.8705 26.1131 12.7293 25.9646C12.5881 25.8161 12.4795 25.6408 12.4102 25.4494C12.341 25.258 12.3126 25.0548 12.3268 24.8522C12.3231 24.6423 12.3351 24.4324 12.3629 24.2242C12.4292 23.8322 12.4946 23.4418 12.5599 23.0525L12.5599 23.0524L12.56 23.0522C12.832 21.4296 13.1007 19.8268 13.4134 18.2183C13.7606 16.4581 14.9104 15.6267 16.714 15.7593C17.6686 15.822 18.6261 15.6909 19.5268 15.3744C20.4275 15.0578 21.252 14.5626 21.9488 13.9195C22.1787 13.7249 22.1382 13.61 21.9488 13.4242C21.4784 12.9551 20.909 12.5928 20.2805 12.3628C18.6928 11.8572 17.0056 11.7269 15.3568 11.9824C12.0518 12.3451 9.7928 14.238 9.04433 17.4045C8.76626 18.5806 8.55561 19.7819 8.34662 20.9736L8.34662 20.9737L8.34661 20.9737C8.24045 21.5791 8.13472 22.1821 8.02081 22.778C7.75047 23.929 7.62778 25.1087 7.65559 26.2895C7.77733 28.178 8.71969 29.3765 10.5548 29.947ZM24.4103 19.2491C22.9133 20.6599 21.0466 20.8988 19.1439 21.058C18.9844 21.0712 18.8237 21.0778 18.6637 21.0844C18.5025 21.0911 18.3418 21.0977 18.1835 21.111C17.8679 21.1376 17.7596 21.111 17.8273 20.7484C18.0572 19.5631 18.2782 18.369 18.4675 17.1749C18.5101 16.9206 18.6523 16.9171 18.8287 16.9129H18.8287C18.8578 16.9122 18.8878 16.9115 18.9184 16.9096C20.2793 16.8884 21.5998 16.4525 22.6969 15.6624C23.694 14.9069 24.4229 13.8623 24.78 12.6772C24.7874 12.6162 24.8077 12.5574 24.8396 12.5045C24.8714 12.4516 24.9142 12.4058 24.9651 12.37C25.016 12.3342 25.0739 12.3092 25.1352 12.2966C25.1965 12.284 25.2598 12.2841 25.3211 12.2968H29.7217C30.1005 12.2968 30.1366 12.4074 30.0779 12.7391C29.0499 18.4501 28.0294 24.1582 27.0164 29.8633C26.9578 30.1906 26.8451 30.2746 26.5204 30.2702H22.7645C22.4173 30.2702 22.3136 30.2127 22.3993 29.828C22.9496 27.006 23.4847 24.1782 24.0196 21.3517C24.1378 20.7274 24.2559 20.1032 24.3742 19.4791C24.3877 19.4305 24.3967 19.3597 24.4103 19.2491ZM29.0274 30.2567H31.3134H31.3139C32.0803 30.2567 32.8421 30.2567 33.6265 30.2655C33.9782 30.2655 34.0954 30.1461 34.145 29.8233C34.3434 28.5554 34.5583 27.2891 34.7898 26.0243C34.8439 25.7102 34.7222 25.6837 34.4606 25.6837H29.8345C29.5099 25.6837 29.4287 25.7987 29.3836 26.0596C29.288 26.5753 29.1977 27.0909 29.1074 27.6062C28.9762 28.355 28.8452 29.1032 28.6983 29.8498C28.6351 30.1682 28.6802 30.2567 29.0274 30.2567Z" fill="currentColor"/>
</svg>