<svg width="49" height="49" viewBox="0 0 49 49" fill="none" xmlns="http://www.w3.org/2000/svg">
<path d="M18.2974 10.7539C14.5843 10.7539 11.0234 12.2289 8.39787 14.8544C5.77236 17.4799 4.29736 21.0409 4.29736 24.7539C4.29736 28.4669 5.77236 32.0279 8.39787 34.6534C11.0234 37.2789 14.5843 38.7539 18.2974 38.7539C20.3774 38.7539 22.4174 38.2739 24.2974 37.3939C26.1774 38.2739 28.2174 38.7539 30.2974 38.7539C34.0104 38.7539 37.5714 37.2789 40.1969 34.6534C42.8224 32.0279 44.2974 28.4669 44.2974 24.7539C44.2974 21.0409 42.8224 17.4799 40.1969 14.8544C37.5714 12.2289 34.0104 10.7539 30.2974 10.7539C28.2174 10.7539 26.1774 11.2339 24.2974 12.1139C22.4174 11.2339 20.3774 10.7539 18.2974 10.7539ZM18.2974 14.7539C18.9774 14.7539 19.6374 14.8139 20.2974 14.9539C17.7374 17.5739 16.2974 21.0939 16.2974 24.7539C16.2974 28.4139 17.7374 31.9339 20.2974 34.5339C19.6374 34.6739 18.9774 34.7539 18.2974 34.7539C15.6452 34.7539 13.1017 33.7003 11.2263 31.825C9.35093 29.9496 8.29736 27.4061 8.29736 24.7539C8.29736 22.1017 9.35093 19.5582 11.2263 17.6828C13.1017 15.8075 15.6452 14.7539 18.2974 14.7539ZM30.2974 14.7539C32.9495 14.7539 35.4931 15.8075 37.3684 17.6828C39.2438 19.5582 40.2974 22.1017 40.2974 24.7539C40.2974 27.4061 39.2438 29.9496 37.3684 31.825C35.4931 33.7003 32.9495 34.7539 30.2974 34.7539C29.6174 34.7539 28.9574 34.6939 28.2974 34.5539C30.8574 31.9339 32.2974 28.4139 32.2974 24.7539C32.2974 21.0939 30.8574 17.5739 28.2974 14.9739C28.9574 14.8339 29.6174 14.7539 30.2974 14.7539Z" fill="#00CC81"/>
</svg>
